<?xml version="1.0" encoding="UTF-8" standalone="no"?>
<svg
   xmlns="http://www.w3.org/2000/svg"
   enable-background="new 0 0 243.238 87.344"
   viewBox="0 0 349.99999 130"
   height="130"
   width="350"
   y="0px"
   x="0px"
   version="1.1">
  <g transform="translate(2)">
    <path
       d="m 33.465486,68.931408 c 0,1.665289 -0.33588,3.120299 -0.992116,4.366443 -0.650592,1.234854 -1.553799,2.28201 -2.712445,3.13159 -1.162879,0.8397 -2.507812,1.483235 -4.034797,1.917904 -1.515694,0.441725 -3.137234,0.661882 -4.850505,0.661882 H 2 v -39.0736 h 20.903605 c 1.361868,0 2.591076,0.296364 3.681982,0.882038 1.097961,0.588496 2.035039,1.354811 2.801354,2.2933 0.777605,0.925788 1.377391,1.989879 1.807826,3.175338 0.424789,1.189694 0.639301,2.397734 0.639301,3.615652 0,1.896736 -0.479829,3.687627 -1.43243,5.35856 -0.959658,1.676582 -2.353984,2.915669 -4.190036,3.704564 2.232616,0.661882 3.996693,1.857221 5.292231,3.571903 1.306828,1.709038 1.961653,3.842865 1.961653,6.394426 z m -7.650448,-1.43243 c 0,-0.690107 -0.121369,-1.350577 -0.352816,-1.984234 -0.237091,-0.646358 -0.563093,-1.202395 -0.970947,-1.676579 -0.396565,-0.479828 -0.876394,-0.865103 -1.433842,-1.145944 -0.544747,-0.276607 -1.15159,-0.419145 -1.807826,-0.419145 H 9.5855306 V 72.571052 H 20.875623 c 0.688695,0 1.333642,-0.121369 1.940484,-0.376807 0.611076,-0.259672 1.145944,-0.622367 1.587669,-1.081027 0.434669,-0.451603 0.781839,-0.992116 1.035866,-1.608838 0.248382,-0.628011 0.375396,-1.299771 0.375396,-2.005402 z M 9.5855306,46.417551 v 9.857664 H 19.705687 c 1.291304,0 2.387854,-0.441725 3.286828,-1.323766 0.891917,-0.876393 1.344932,-2.083022 1.344932,-3.615652 0,-1.511461 -0.4135,-2.712445 -1.234854,-3.594483 -0.826999,-0.876393 -1.847341,-1.323763 -3.06526,-1.323763 z m 0,0"
       style="fill:#dd1d00;stroke-width:1.41126156" />
    <path
       d="m 34.772315,79.009227 15.413798,-39.0736 h 6.151689 l 15.370049,39.0736 H 63.659426 L 60.087523,69.263055 H 46.394053 L 42.79957,79.009227 Z M 53.273953,48.137878 47.650076,63.927075 h 11.069935 z m 0,0"
       style="fill:#dd1d00;stroke-width:1.41126156" />
    <path
       d="m 75.979739,79.009227 v -39.0736 h 17.266785 c 1.802181,0 3.467469,0.379629 4.983164,1.123364 1.526985,0.750791 2.845102,1.748553 3.947302,2.977762 1.09655,1.223563 1.96306,2.61789 2.57978,4.190035 0.62801,1.559444 0.94837,3.124533 0.94837,4.696678 0,2.530395 -0.64495,4.833574 -1.9179,6.901072 -1.26873,2.073143 -2.98341,3.577548 -5.138407,4.499101 l 9.195777,14.685588 H 99.265554 L 91.063302,65.911309 H 83.56527 V 79.009227 Z M 83.56527,59.251566 h 9.526015 c 0.690107,0 1.335053,-0.159473 1.940484,-0.485474 0.612488,-0.335881 1.147356,-0.781839 1.58767,-1.344933 0.436079,-0.567327 0.78325,-1.240498 1.037277,-2.006816 0.258261,-0.777605 0.396564,-1.608838 0.396564,-2.490877 0,-0.921554 -0.148182,-1.769722 -0.440313,-2.536037 -0.297776,-0.76067 -0.695752,-1.433841 -1.191105,-2.006814 -0.502409,-0.567327 -1.075381,-1.014697 -1.720328,-1.323763 -0.633656,-0.30201 -1.284248,-0.462894 -1.940484,-0.462894 h -9.19578 z m 0,0"
       style="fill:#dd1d00;stroke-width:1.41126156" />
    <path
       d="m 141.44393,46.593958 h -12.43604 v 32.415269 h -7.58553 V 46.593958 h -12.50378 v -6.658331 h 32.52535 z m 0,0"
       style="fill:#dd1d00;stroke-width:1.41126156" />
    <path
       d="m 161.39493,79.274544 c -2.75055,0 -5.26401,-0.55886 -7.54178,-1.676579 -2.28201,-1.113485 -4.23943,-2.602366 -5.8652,-4.453941 -1.63142,-1.847342 -2.8945,-3.969879 -3.77089,-6.350677 -0.88204,-2.376564 -1.32236,-4.818047 -1.32236,-7.321625 0,-2.596721 0.46854,-5.093245 1.41126,-7.475455 0.93708,-2.392088 2.23685,-4.503335 3.90214,-6.328096 1.67094,-1.836051 3.64388,-3.296707 5.91037,-4.387612 2.27636,-1.086672 4.763,-1.63283 7.45287,-1.63283 2.7449,0 5.25412,0.584262 7.5192,1.742908 2.27636,1.16288 4.22249,2.678575 5.84403,4.542851 1.6159,1.86851 2.86628,4.000926 3.74831,6.394426 0.8764,2.380798 1.32377,4.801114 1.32377,7.253887 0,2.602366 -0.47419,5.089009 -1.41126,7.454283 -0.94273,2.369508 -2.23827,4.465231 -3.88097,6.284347 -1.64836,1.807826 -3.61142,3.258603 -5.88779,4.343863 -2.28342,1.075382 -4.75877,1.61025 -7.4317,1.61025 z M 150.54515,59.471722 c 0,1.692103 0.24838,3.324932 0.75079,4.895667 0.49536,1.576379 1.21228,2.970705 2.13806,4.190035 0.93708,1.206629 2.08444,2.177576 3.44066,2.911432 1.36187,0.73809 2.91143,1.103607 4.63035,1.103607 1.75843,0 3.31364,-0.376807 4.65293,-1.124776 1.33364,-0.745146 2.45842,-1.748553 3.37432,-3.000341 0.92015,-1.244733 1.62013,-2.65035 2.09432,-4.211205 0.47983,-1.553799 0.72821,-3.141468 0.72821,-4.763007 0,-1.686458 -0.25967,-3.317876 -0.77196,-4.894258 -0.51794,-1.583435 -1.24615,-2.983407 -2.18322,-4.190035 -0.92579,-1.202395 -2.0675,-2.166287 -3.41808,-2.888853 -1.33929,-0.716921 -2.85075,-1.081026 -4.52027,-1.081026 -1.76408,0 -3.31929,0.386686 -4.65293,1.147356 -1.33929,0.749379 -2.481,1.747141 -3.41807,2.97635 -0.94273,1.223564 -1.65965,2.613656 -2.13948,4.167455 -0.47418,1.559447 -0.70563,3.147116 -0.70563,4.761599 z m 0,0"
       style="fill:#dd1d00;stroke-width:1.41126156" />
    <path
       d="m 183.67734,59.185236 c 0,-2.375153 0.41914,-4.72914 1.25743,-7.05631 0.84958,-2.331404 2.07315,-4.415837 3.66081,-6.240598 1.59896,-1.836052 3.55638,-3.317876 5.86521,-4.453942 2.30459,-1.14171 4.9507,-1.720327 7.93834,-1.720327 3.47876,0 6.49463,0.800185 9.04054,2.382209 2.55298,1.576379 4.43842,3.626942 5.64505,6.151689 l -5.84403,4.013628 c -0.44173,-1.096551 -1.00906,-2.029395 -1.69775,-2.778774 -0.69434,-0.743735 -1.46066,-1.344933 -2.2933,-1.785246 -0.827,-0.43608 -1.68081,-0.762081 -2.55862,-0.970948 -0.88204,-0.204633 -1.72597,-0.309066 -2.51345,-0.309066 -1.80783,0 -3.38985,0.39233 -4.74043,1.168524 -1.35622,0.766315 -2.48664,1.769722 -3.3955,2.998931 -0.89897,1.224975 -1.57638,2.619301 -2.02939,4.190035 -0.45725,1.560858 -0.68305,3.103367 -0.68305,4.630352 0,1.737263 0.26532,3.406785 0.79454,5.005745 0.52358,1.587669 1.2786,2.993285 2.24955,4.211204 0.9653,1.206629 2.12818,2.178988 3.4844,2.911432 1.36187,0.722566 2.85499,1.081027 4.47653,1.081027 0.83264,0 1.69774,-0.09879 2.57978,-0.309067 0.87639,-0.214511 1.73162,-0.56027 2.55862,-1.034454 0.83264,-0.48124 1.59896,-1.103607 2.2933,-1.852987 0.68869,-0.76067 1.25743,-1.676578 1.69775,-2.733613 l 6.21801,3.571903 c -0.5899,1.471946 -1.44372,2.767484 -2.55861,3.880969 -1.11913,1.11913 -2.39209,2.067498 -3.81464,2.846514 -1.4282,0.764904 -2.93825,1.354811 -4.52027,1.764077 -1.57638,0.389508 -3.13724,0.594141 -4.67551,0.594141 -2.72374,0 -5.21461,-0.584262 -7.47546,-1.764077 -2.24955,-1.174169 -4.19568,-2.701154 -5.82145,-4.586599 -1.63142,-1.88968 -2.90014,-4.040442 -3.79347,-6.438175 -0.89897,-2.411846 -1.34493,-4.864619 -1.34493,-7.368197 z m 0,0"
       style="fill:#dd1d00;stroke-width:1.41126156" />
    <rect
       x="222.0072"
       y="71.093445"
       width="6.0641904"
       height="7.9143543"
       style="stroke-width:1.41126156" />
    <path
       d="m 247.90667,79.56103 c -2.33705,0 -4.44829,-0.407855 -6.32809,-1.213685 -1.86852,-0.804419 -3.45618,-1.895324 -4.76301,-3.264248 -1.29554,-1.378802 -2.29895,-2.966472 -2.99893,-4.763007 -0.69434,-1.802181 -1.03587,-3.693272 -1.03587,-5.667627 0,-2.022337 0.34153,-3.936008 1.03587,-5.732544 0.69998,-1.792302 1.70339,-3.379971 2.99893,-4.76301 1.30683,-1.378803 2.89449,-2.469708 4.76301,-3.264248 1.8798,-0.804419 3.99104,-1.212274 6.32809,-1.212274 2.34834,0 4.45394,0.407855 6.30693,1.212274 1.84734,0.79454 3.42372,1.885445 4.71926,3.264248 1.30683,1.383039 2.30459,2.970708 2.99893,4.76301 0.69998,1.796536 1.05844,3.710207 1.05844,5.732544 0,1.974355 -0.35846,3.864034 -1.05844,5.667627 -0.69434,1.796535 -1.68081,3.384205 -2.95518,4.763007 -1.27861,1.368924 -2.86063,2.458418 -4.74043,3.264248 -1.86992,0.80583 -3.98117,1.213685 -6.32951,1.213685 z m -7.54178,-14.907155 c 0,1.278603 0.1877,2.442893 0.57297,3.484404 0.39092,1.047156 0.93143,1.958831 1.61025,2.735025 0.67317,0.766315 1.4663,1.361867 2.38221,1.786657 0.92014,0.4135 1.91791,0.618133 2.97635,0.618133 1.06974,0 2.06185,-0.206045 2.97635,-0.618133 0.91027,-0.42479 1.70339,-1.020342 2.38221,-1.786657 0.6887,-0.776194 1.22357,-1.697748 1.61025,-2.756194 0.38104,-1.069736 0.57297,-2.248139 0.57297,-3.528153 0,-1.246144 -0.19334,-2.403379 -0.57297,-3.461825 -0.38527,-1.069736 -0.92014,-1.989879 -1.61025,-2.756194 -0.6774,-0.76067 -1.47194,-1.356222 -2.38221,-1.786657 -0.9145,-0.423378 -1.90802,-0.639301 -2.97635,-0.639301 -1.05844,0 -2.05621,0.225802 -2.97635,0.661882 -0.9145,0.441724 -1.70904,1.052801 -2.38221,1.830406 -0.6774,0.766315 -1.21792,1.686457 -1.61025,2.756193 -0.38527,1.057035 -0.57297,2.21427 -0.57297,3.460414 z m 0,0"
       style="stroke-width:1.41126156" />
    <path
       d="m 285.09482,56.561701 c -2.24955,0.03246 -4.26201,0.457249 -6.02044,1.278603 -1.75278,0.826999 -3.01586,2.067498 -3.79347,3.727142 v 17.441781 h -7.36537 V 50.167272 h 6.76982 v 6.174272 c 0.98083,-1.980002 2.27072,-3.578962 3.85839,-4.78559 1.59896,-1.217919 3.28541,-1.830406 5.04949,-1.830406 0.40786,0 0.71128,0.01693 0.90462,0.04375 0.20463,0.01693 0.40221,0.03952 0.59555,0.06633 v 6.726075 z m 0,0"
       style="stroke-width:1.41126156" />
    <path
       d="m 300.53685,79.163054 c -1.89674,0 -3.64953,-0.381041 -5.24848,-1.147355 -1.60461,-0.76067 -2.97071,-1.813472 -4.10113,-3.151347 -1.13607,-1.351989 -2.0181,-2.901554 -2.64612,-4.65293 -0.61813,-1.759843 -0.92578,-3.639643 -0.92578,-5.623877 0,-2.083022 0.33023,-4.023506 0.99211,-5.821453 0.65624,-1.802181 1.57074,-3.384208 2.73503,-4.740431 1.17417,-1.361867 2.57978,-2.431603 4.2112,-3.197918 1.64271,-0.76067 3.45054,-1.145944 5.42489,-1.145944 2.27637,0 4.26201,0.512287 5.95411,1.521339 1.68646,1.003407 3.06526,2.34834 4.12371,4.034797 v -5.070663 h 6.43959 v 27.474442 c 0,2.111247 -0.40221,4.019273 -1.19111,5.711376 -0.78325,1.686457 -1.89109,3.120299 -3.32916,4.300113 -1.4282,1.17417 -3.11466,2.073143 -5.0495,2.689865 -1.94048,0.629422 -4.07431,0.948367 -6.39442,0.948367 -3.19228,0 -5.85956,-0.534868 -8.00468,-1.587669 -2.14935,-1.047156 -3.99669,-2.519102 -5.53497,-4.410192 l 4.0348,-3.924718 c 1.08667,1.361867 2.46971,2.433015 4.14629,3.19933 1.67093,0.776193 3.46182,1.168524 5.35856,1.168524 1.14171,0 2.23826,-0.166529 3.28541,-0.486885 1.04151,-0.309066 1.95178,-0.798774 2.73503,-1.453599 0.78889,-0.663293 1.4169,-1.511461 1.87415,-2.537449 0.46854,-1.03022 0.70563,-2.23826 0.70563,-3.617063 v -3.638232 c -0.95965,1.648353 -2.30459,2.921311 -4.03479,3.81464 -1.72456,0.898973 -3.58178,1.344932 -5.56037,1.344932 z m 2.53462,-5.886372 c 0.80442,0 1.57638,-0.121368 2.31588,-0.376806 0.73386,-0.259673 1.39997,-0.606843 2.00682,-1.034455 0.60119,-0.437491 1.13606,-0.955424 1.61025,-1.545331 0.47982,-0.584263 0.85945,-1.212274 1.12477,-1.874156 v -6.8799 c -0.66188,-1.687868 -1.6921,-3.049736 -3.08784,-4.079957 -1.39997,-1.025987 -2.87192,-1.54392 -4.41019,-1.54392 -1.13607,0 -2.17193,0.254027 -3.10901,0.750791 -0.92579,0.500998 -1.72597,1.16288 -2.38221,1.984234 -0.66188,0.826999 -1.17417,1.775367 -1.52134,2.843692 -0.35281,1.058446 -0.52922,2.156408 -0.52922,3.286828 0,1.178403 0.19899,2.28201 0.59555,3.306586 0.40785,1.030221 0.97518,1.934839 1.69775,2.712444 0.71692,0.766315 1.56509,1.373158 2.53603,1.807826 0.96531,0.431846 2.01811,0.642124 3.15276,0.642124 z m 0,0"
       style="stroke-width:1.41126156" />
    <path
       d="m 8.6174052,88.049768 c 0,0.320356 -0.059273,0.611076 -0.1891091,0.869337 -0.1411261,0.265317 -0.3133,0.48124 -0.5447469,0.666115 C 7.6619811,89.764451 7.402309,89.881585 7.0988878,89.980374 6.7898215,90.083396 6.4807553,90.13279 6.1321737,90.13279 H 2.2921311 v -8.069594 h 4.1618102 c 0.2695509,0 0.5207555,0.06774 0.7409123,0.165118 0.242737,0.131247 0.4360798,0.280841 0.5955523,0.462894 0.1538275,0.220157 0.2766073,0.441725 0.3626942,0.684462 0.084676,0.231447 0.1354812,0.474184 0.1354812,0.719743 0,0.406443 -0.1100784,0.791718 -0.2935424,1.124775 -0.204633,0.355638 -0.4967641,0.602609 -0.8721596,0.770549 0.4741838,0.136893 0.8382893,0.383863 1.1036064,0.743735 0.2596722,0.361283 0.3909195,0.79454 0.3909195,1.315296 z m -1.2927156,-0.25685 c 0,-0.146771 -0.031048,-0.309066 -0.087498,-0.441725 C 7.1849748,87.180431 7.1045329,87.063296 7.0057445,86.94475 6.9097788,86.827615 6.7855878,86.74294 6.6430503,86.666732 6.5089805,86.583467 6.360798,86.543952 6.2224944,86.543952 h -2.644704 v 2.48382 h 2.5557945 c 0.1707627,0 0.3316465,-0.03105 0.4798289,-0.108667 0.1439487,-0.07056 0.2653172,-0.163706 0.3697506,-0.254027 0.098788,-0.115724 0.1876977,-0.220157 0.2328581,-0.385275 0.071974,-0.138303 0.1086671,-0.32459 0.1086671,-0.486885 z M 3.5777904,83.168214 v 2.352573 h 2.3243477 c 0.1552387,0 0.3034212,-0.02964 0.437491,-0.07903 0.1425374,-0.04939 0.2596721,-0.138304 0.3471703,-0.241326 0.1001996,-0.08609 0.1876978,-0.221568 0.2314469,-0.354227 0.071974,-0.160884 0.1114897,-0.310477 0.1114897,-0.506643 0,-0.327412 -0.1157235,-0.609665 -0.2991874,-0.832644 -0.204633,-0.245559 -0.453015,-0.338703 -0.7564362,-0.338703 z m 0,0"
       style="stroke-width:1.41126156" />
    <path
       d="m 11.119572,90.234401 c -0.293543,0 -0.564505,-0.05504 -0.807242,-0.121369 C 10.079472,89.997309 9.8607266,89.854771 9.6716175,89.703766 9.5107337,89.549939 9.3738413,89.328371 9.2581179,89.108214 9.1536846,88.883823 9.112758,88.632619 9.112758,88.370124 c 0,-0.270962 0.052217,-0.520755 0.1679401,-0.740912 0.1256023,-0.249793 0.307655,-0.451604 0.5292231,-0.596964 0.2328578,-0.186286 0.4925298,-0.303421 0.8001848,-0.406443 0.300599,-0.08044 0.629423,-0.12278 0.99494,-0.12278 0.287897,0 0.564504,0.03387 0.829822,0.05645 0.26955,0.06068 0.534868,0.136892 0.755024,0.218745 v -0.430435 c 0,-0.41491 -0.127013,-0.767726 -0.36975,-1.016108 -0.254027,-0.244148 -0.622366,-0.385274 -1.082438,-0.385274 -0.318945,0 -0.644946,0.07197 -0.959657,0.197576 -0.293543,0.1002 -0.608254,0.292131 -0.9215542,0.508054 l -0.3923307,-0.78466 c 0.7564359,-0.527812 1.5622669,-0.79454 2.3906769,-0.79454 0.811475,0 1.435253,0.235681 1.888268,0.639301 0.464305,0.42479 0.690107,1.011875 0.690107,1.78948 v 2.142295 c 0,0.13407 0.02681,0.249793 0.07197,0.320356 0.05504,0.05927 0.142538,0.07198 0.276607,0.07903 V 90.1342 c -0.117134,0.0028 -0.227213,0.0127 -0.327412,0.0127 -0.104434,0.01129 -0.208867,0.02258 -0.273785,0.02258 -0.234269,-0.01694 -0.42479,-0.05504 -0.553214,-0.187698 -0.117135,-0.125602 -0.208867,-0.265317 -0.23427,-0.441725 l -0.02117,-0.383863 c -0.276607,0.362694 -0.622366,0.633656 -1.010463,0.804419 -0.382452,0.176408 -0.795951,0.273785 -1.24191,0.273785 z m 0.341525,-0.930022 c 0.289309,0 0.568738,-0.02964 0.834056,-0.149593 0.270962,-0.119958 0.502409,-0.276608 0.661881,-0.464305 0.153828,-0.14536 0.231447,-0.265318 0.231447,-0.431847 v -0.784661 c -0.211689,-0.09314 -0.445958,-0.143949 -0.690107,-0.187698 -0.231447,-0.0381 -0.474184,-0.06633 -0.688695,-0.06633 -0.453015,0 -0.818532,0.115723 -1.103607,0.299187 -0.276607,0.176408 -0.414911,0.42479 -0.414911,0.73809 0,0.310478 0.09879,0.55886 0.320357,0.770549 0.214511,0.19052 0.496764,0.276607 0.849579,0.276608 z m 0,0"
       style="stroke-width:1.41126156" />
    <path
       d="m 17.954311,90.234401 c -0.249793,0 -0.498175,-0.02823 -0.740912,-0.06633 -0.235681,-0.03105 -0.485474,-0.06774 -0.712687,-0.143948 -0.231447,-0.08326 -0.474184,-0.169352 -0.690107,-0.255439 -0.211689,-0.114312 -0.402209,-0.214511 -0.574383,-0.362694 l 0.530634,-0.852402 c 0.723977,0.508054 1.452188,0.762081 2.173343,0.762081 0.365516,0 0.663293,-0.04375 0.884861,-0.208866 0.217334,-0.128425 0.342936,-0.352816 0.342936,-0.618133 0,-0.241326 -0.127013,-0.419145 -0.386685,-0.551803 -0.248383,-0.09314 -0.640713,-0.237092 -1.176993,-0.352816 -0.364105,-0.100199 -0.684461,-0.204632 -0.944134,-0.276607 -0.265317,-0.09879 -0.489707,-0.211689 -0.650591,-0.321767 -0.153828,-0.125603 -0.276607,-0.252616 -0.35846,-0.429024 -0.07056,-0.155239 -0.114313,-0.342936 -0.114313,-0.567327 0,-0.299187 0.0621,-0.571561 0.180642,-0.81712 0.127013,-0.242737 0.293542,-0.437491 0.486885,-0.580029 0.214512,-0.189109 0.457249,-0.300599 0.735267,-0.385274 0.287898,-0.08468 0.591319,-0.13407 0.921554,-0.13407 0.430435,0 0.849579,0.07903 1.24191,0.218745 0.403621,0.118546 0.767726,0.324591 1.082438,0.554626 l -0.530635,0.76067 c -0.568738,-0.434668 -1.16429,-0.661882 -1.816293,-0.661882 -0.309066,0 -0.584262,0.08185 -0.80583,0.227214 -0.220157,0.131247 -0.328824,0.334469 -0.328824,0.620955 0,0.132658 0.0099,0.215923 0.05222,0.300598 0.05645,0.08609 0.128425,0.16794 0.232858,0.208867 0.115724,0.07621 0.246971,0.142537 0.400799,0.197577 0.162295,0.04234 0.382452,0.07197 0.630834,0.143948 0.40362,0.104434 0.747968,0.183464 1.040099,0.300599 0.30201,0.101611 0.539102,0.198988 0.733856,0.340114 0.197577,0.117135 0.347171,0.293542 0.434669,0.462894 0.08326,0.180641 0.138303,0.396564 0.138303,0.640713 0,0.293542 -0.07197,0.546158 -0.182052,0.763492 -0.105845,0.218746 -0.265317,0.430435 -0.464305,0.594141 -0.220157,0.14536 -0.474184,0.287897 -0.777605,0.385274 -0.309067,0.05363 -0.630834,0.103023 -0.989295,0.103023 z m 0,0"
       style="stroke-width:1.41126156" />
    <path
       d="m 33.582621,90.134201 v -8.069593 h 3.518275 c 0.35846,0 0.695752,0.06774 0.993528,0.231447 0.303421,0.132658 0.563094,0.352815 0.800185,0.595552 0.214512,0.248382 0.39092,0.537691 0.508055,0.852402 0.125602,0.307655 0.189109,0.596964 0.189109,0.927199 0,0.275196 -0.03528,0.540513 -0.118546,0.784661 -0.07056,0.269551 -0.176408,0.505232 -0.303422,0.707042 -0.132658,0.203222 -0.303421,0.382452 -0.500997,0.550392 -0.189109,0.14536 -0.419145,0.269551 -0.646358,0.342937 l 1.910848,3.079372 H 38.489577 L 36.71421,87.332847 h -1.844518 v 2.802765 h -1.287071 z m 1.287071,-3.930363 h 2.208624 c 0.172174,0 0.33588,-0.04093 0.486885,-0.131248 0.153828,-0.07903 0.286486,-0.176407 0.39092,-0.341525 0.115723,-0.128425 0.187697,-0.287897 0.248382,-0.464305 0.05504,-0.172174 0.09314,-0.375395 0.09314,-0.595552 0,-0.183464 -0.04798,-0.366928 -0.115724,-0.572972 -0.07762,-0.173586 -0.165117,-0.317534 -0.276607,-0.464305 -0.114312,-0.129837 -0.258261,-0.255439 -0.412088,-0.342937 -0.149594,-0.05504 -0.309067,-0.1002 -0.479829,-0.1002 H 34.8711 v 3.013044 z m 0,0"
       style="stroke-width:1.41126156" />
    <path
       d="m 43.455807,90.234401 c -0.464305,0 -0.89474,-0.09314 -1.271547,-0.231447 -0.381041,-0.153828 -0.695752,-0.407855 -0.966714,-0.684462 -0.265317,-0.282252 -0.485474,-0.591319 -0.639302,-0.970948 -0.149593,-0.375396 -0.210278,-0.750791 -0.210278,-1.192516 0,-0.386686 0.06068,-0.790306 0.210278,-1.160057 0.153828,-0.36975 0.373985,-0.711276 0.639302,-1.001996 0.270962,-0.289308 0.587085,-0.509465 0.966714,-0.654825 0.376807,-0.169351 0.807242,-0.263906 1.271547,-0.263906 0.462893,0 0.876393,0.09879 1.240498,0.265317 0.392331,0.163707 0.702809,0.37963 0.966715,0.652003 0.270962,0.273785 0.484062,0.605431 0.618132,0.979416 0.143949,0.348581 0.210278,0.745146 0.210278,1.124775 0,0.09597 -0.0042,0.196165 -0.0056,0.278019 0,0.05504 -0.01129,0.132658 -0.02117,0.187697 h -4.758774 c 0.02681,0.276608 0.09173,0.519345 0.182053,0.718332 0.09879,0.206045 0.231447,0.4135 0.39092,0.554626 0.170762,0.162295 0.352815,0.263906 0.574383,0.362694 0.198988,0.08891 0.42479,0.107256 0.646358,0.107256 0.172174,0 0.341525,-0.0028 0.500998,-0.03951 0.139714,-0.03952 0.289308,-0.110078 0.420555,-0.200399 0.142538,-0.05081 0.269551,-0.165118 0.385275,-0.296365 0.09879,-0.09597 0.176408,-0.239915 0.254027,-0.355638 l 1.059857,0.320356 c -0.204633,0.437491 -0.558859,0.817121 -1.017519,1.103607 -0.478418,0.276607 -1.024576,0.397976 -1.646942,0.397976 z m 1.792302,-3.522509 c -0.01693,-0.242737 -0.08891,-0.46995 -0.187698,-0.705631 -0.09455,-0.214512 -0.230036,-0.386686 -0.372573,-0.551803 -0.159473,-0.128425 -0.357049,-0.254027 -0.572972,-0.311889 -0.220157,-0.09879 -0.430435,-0.151005 -0.660471,-0.151005 -0.232858,0 -0.454426,0.05222 -0.670349,0.151005 -0.204633,0.05786 -0.396564,0.183464 -0.551803,0.311889 -0.159473,0.163706 -0.293543,0.33588 -0.392331,0.551803 -0.0875,0.235681 -0.153827,0.462894 -0.180641,0.705631 z m 0,0"
       style="stroke-width:1.41126156" />
    <path
       d="m 49.625842,90.168071 c -0.407855,0 -0.788895,-0.05504 -1.103607,-0.230035 -0.33588,-0.15665 -0.622366,-0.378218 -0.85099,-0.653414 -0.231447,-0.287898 -0.423379,-0.618133 -0.551804,-0.980827 -0.132658,-0.372573 -0.203221,-0.740912 -0.203221,-1.148767 0,-0.4135 0.07056,-0.834056 0.203221,-1.182637 0.127014,-0.39092 0.320357,-0.728211 0.551804,-1.003407 0.244148,-0.270962 0.536279,-0.486885 0.873571,-0.630834 0.330235,-0.169351 0.701397,-0.263906 1.112074,-0.263906 0.488296,0 0.913086,0.127014 1.263079,0.342937 0.35846,0.218745 0.661881,0.519344 0.894739,0.894739 v -1.127597 h 1.103607 v 5.753713 c 0,0.444547 -0.08891,0.810064 -0.232858,1.147355 -0.159473,0.347171 -0.396565,0.628012 -0.681639,0.852402 -0.27943,0.224391 -0.619544,0.406444 -0.996351,0.529223 -0.383863,0.125603 -0.800185,0.165118 -1.24191,0.165118 -0.668938,0 -1.226386,-0.09455 -1.656821,-0.309066 -0.42479,-0.254027 -0.79454,-0.537691 -1.082438,-0.939901 l 0.691518,-0.66047 c 0.225802,0.314711 0.529223,0.550392 0.877805,0.7268 0.35846,0.153827 0.745146,0.254027 1.171347,0.254027 0.242737,0 0.475595,-0.0381 0.711276,-0.108667 0.225802,-0.07621 0.42479,-0.160884 0.602609,-0.321768 0.186286,-0.132659 0.323178,-0.314711 0.413499,-0.550392 0.1002,-0.222979 0.160884,-0.482651 0.160884,-0.784661 v -0.904619 c -0.204633,0.366928 -0.499587,0.653414 -0.873571,0.838289 -0.365517,0.217335 -0.752202,0.296365 -1.155823,0.296365 z m 0.392331,-0.993528 c 0.187697,0 0.376806,-0.03246 0.551803,-0.110078 0.172174,-0.04093 0.327413,-0.13407 0.464305,-0.254027 0.153827,-0.09455 0.287897,-0.238503 0.409266,-0.354227 0.09879,-0.159472 0.165117,-0.297776 0.210278,-0.472773 v -1.546742 c -0.149594,-0.39092 -0.382452,-0.705631 -0.712687,-0.938489 -0.317534,-0.225802 -0.650592,-0.330235 -1.010464,-0.330235 -0.273784,0 -0.524989,0.0381 -0.739501,0.165117 -0.220156,0.110079 -0.397975,0.280841 -0.553214,0.462894 -0.148183,0.198988 -0.259672,0.420556 -0.342937,0.663293 -0.07197,0.231447 -0.115723,0.475595 -0.115723,0.718332 0,0.275196 0.04939,0.53628 0.138303,0.762081 0.09738,0.261084 0.225802,0.468539 0.373985,0.639302 0.16794,0.174996 0.371162,0.32459 0.59273,0.450192 0.230035,0.09032 0.468538,0.14536 0.733856,0.14536 z m 0,0"
       style="stroke-width:1.41126156" />
    <path
       d="m 54.126355,90.134201 v -5.949878 h 1.240499 v 5.949878 z m 0,-6.923649 v -1.357633 h 1.240499 v 1.357633 z m 0,0"
       style="stroke-width:1.41126156" />
    <path
       d="m 58.978272,90.234401 c -0.248382,0 -0.499587,-0.02823 -0.755025,-0.06633 -0.232858,-0.03105 -0.46995,-0.06774 -0.705631,-0.143948 -0.238503,-0.08326 -0.465716,-0.169352 -0.692929,-0.255439 -0.210278,-0.114312 -0.407855,-0.214511 -0.563094,-0.362694 l 0.529224,-0.852402 c 0.722565,0.508054 1.436664,0.762081 2.164875,0.762081 0.35846,0 0.656236,-0.04375 0.893328,-0.208866 0.215923,-0.128425 0.327413,-0.352816 0.327413,-0.618133 0,-0.241326 -0.128425,-0.419145 -0.369751,-0.551803 -0.249793,-0.09314 -0.642124,-0.237092 -1.186871,-0.352816 -0.36975,-0.100199 -0.690106,-0.204632 -0.949779,-0.276607 -0.265317,-0.09879 -0.475595,-0.211689 -0.646357,-0.321767 -0.159473,-0.125603 -0.282253,-0.252616 -0.348582,-0.429024 -0.08891,-0.155239 -0.127013,-0.342936 -0.127013,-0.567327 0,-0.299187 0.05927,-0.571561 0.176407,-0.81712 0.128425,-0.242737 0.299188,-0.437491 0.502409,-0.580029 0.198988,-0.189109 0.441725,-0.300599 0.718332,-0.385274 0.286487,-0.08468 0.602609,-0.13407 0.937078,-0.13407 0.423379,0 0.839701,0.07903 1.243321,0.218745 0.40221,0.118546 0.762082,0.324591 1.081027,0.554626 l -0.529223,0.76067 c -0.568739,-0.434668 -1.181226,-0.661882 -1.816294,-0.661882 -0.320356,0 -0.591318,0.08185 -0.80583,0.227214 -0.237092,0.131247 -0.342937,0.334469 -0.342937,0.620955 0,0.132658 0.02258,0.215923 0.06633,0.300598 0.03952,0.08609 0.127013,0.16794 0.232858,0.208867 0.09879,0.07621 0.231447,0.142537 0.390919,0.197577 0.172174,0.04234 0.376807,0.07197 0.628012,0.143948 0.41491,0.104434 0.759258,0.183464 1.049978,0.300599 0.304833,0.101611 0.541925,0.198988 0.735267,0.340114 0.182053,0.117135 0.331647,0.293542 0.420556,0.462894 0.09879,0.180641 0.139715,0.396564 0.139715,0.640713 0,0.293542 -0.05927,0.546158 -0.169351,0.763492 -0.107256,0.218746 -0.265317,0.430435 -0.479829,0.594141 -0.204633,0.14536 -0.460071,0.287897 -0.762081,0.385274 -0.309067,0.05363 -0.643536,0.103023 -0.986472,0.103023 z m 0,0"
       style="stroke-width:1.41126156" />
    <path
       d="m 65.53217,89.813845 c -0.160884,0.05786 -0.397975,0.160883 -0.670349,0.275196 -0.273785,0.06774 -0.585673,0.122779 -0.898974,0.122779 -0.206044,0 -0.382451,-0.03246 -0.553214,-0.07621 -0.176408,-0.03528 -0.331646,-0.122779 -0.457249,-0.244148 -0.13407,-0.09455 -0.238503,-0.259672 -0.320356,-0.419145 -0.0621,-0.169351 -0.09455,-0.385274 -0.09455,-0.618132 v -3.687626 h -0.80583 v -0.982238 h 0.80583 v -1.954598 h 1.24191 v 1.954598 h 1.30824 v 0.982238 h -1.30824 v 3.31223 c 0,0.206044 0.06633,0.342937 0.182053,0.441725 0.110079,0.103022 0.265317,0.12278 0.44737,0.12278 0.165118,0 0.337292,-0.0099 0.496764,-0.05645 0.153828,-0.07197 0.275196,-0.131247 0.347171,-0.174996 z m 0,0"
       style="stroke-width:1.41126156" />
    <path
       d="m 68.914964,90.234401 c -0.479829,0 -0.910264,-0.09314 -1.285659,-0.231447 -0.364106,-0.153828 -0.695752,-0.407855 -0.966714,-0.684462 -0.265317,-0.282252 -0.46995,-0.591319 -0.623778,-0.970948 -0.148182,-0.375396 -0.225802,-0.750791 -0.225802,-1.192516 0,-0.386686 0.07762,-0.790306 0.225802,-1.160057 0.155239,-0.36975 0.359872,-0.711276 0.623778,-1.001996 0.270962,-0.289308 0.601197,-0.509465 0.966714,-0.654825 0.376807,-0.169351 0.80583,-0.263906 1.285659,-0.263906 0.460071,0 0.87216,0.09879 1.24191,0.265317 0.376807,0.163707 0.701397,0.37963 0.965303,0.652003 0.270962,0.273785 0.46995,0.605431 0.602609,0.979416 0.143948,0.348581 0.227213,0.745146 0.227213,1.124775 0,0.09597 -0.01129,0.196165 -0.02258,0.278019 0,0.05504 -0.01129,0.132658 -0.02258,0.187697 H 67.165 c 0.0099,0.276608 0.07762,0.519345 0.165117,0.718332 0.112901,0.206045 0.246971,0.4135 0.392331,0.554626 0.172174,0.162295 0.369751,0.263906 0.574384,0.362694 0.214511,0.08891 0.424789,0.107256 0.659059,0.107256 0.15665,0 0.327412,-0.0028 0.488296,-0.03951 0.153828,-0.03952 0.304833,-0.110078 0.437491,-0.200399 0.142538,-0.05081 0.265317,-0.165118 0.369751,-0.296365 0.09879,-0.09597 0.191931,-0.239915 0.254027,-0.355638 l 1.075381,0.320356 c -0.218745,0.437491 -0.557448,0.817121 -1.031632,1.103607 -0.479829,0.276607 -1.025987,0.397976 -1.634241,0.397976 z m 1.793713,-3.522509 c -0.03105,-0.242737 -0.09455,-0.46995 -0.203221,-0.705631 -0.08891,-0.214512 -0.214512,-0.386686 -0.369751,-0.551803 -0.159472,-0.128425 -0.348581,-0.254027 -0.574383,-0.311889 -0.204633,-0.09879 -0.430435,-0.151005 -0.646358,-0.151005 -0.234269,0 -0.468539,0.05222 -0.667527,0.151005 -0.220156,0.05786 -0.396564,0.183464 -0.551803,0.311889 -0.159472,0.163706 -0.293542,0.33588 -0.393742,0.551803 -0.103022,0.235681 -0.152416,0.462894 -0.17923,0.705631 z m 0,0"
       style="stroke-width:1.41126156" />
    <path
       d="m 76.043246,85.24418 c -0.48124,0.03246 -0.911675,0.163706 -1.287071,0.364105 -0.364105,0.187698 -0.635067,0.493942 -0.80583,0.89474 v 3.631176 h -1.24191 v -5.949878 h 1.169936 v 1.313884 c 0.198988,-0.385274 0.46995,-0.723977 0.807241,-0.970948 0.328824,-0.261083 0.673172,-0.409266 1.037278,-0.409266 0.08185,0 0.138303,0 0.180641,0 0.05504,0 0.09314,0 0.139715,0 z m 0,0"
       style="stroke-width:1.41126156" />
    <path
       d="m 81.939497,90.234401 c -0.454427,0 -0.873571,-0.09455 -1.256023,-0.254027 -0.372573,-0.155239 -0.694341,-0.395154 -0.969537,-0.675995 -0.269551,-0.269551 -0.464305,-0.577206 -0.606842,-0.958246 -0.149594,-0.39092 -0.220157,-0.766315 -0.220157,-1.192516 0,-0.386686 0.07056,-0.790307 0.220157,-1.160057 0.142537,-0.369751 0.33588,-0.705631 0.606842,-0.980827 0.275196,-0.287897 0.596964,-0.508054 0.969537,-0.673172 0.382452,-0.166529 0.801596,-0.265317 1.256023,-0.265317 0.474183,0 0.900384,0.09879 1.26449,0.265317 0.373984,0.163707 0.699986,0.383863 0.965303,0.673172 0.259672,0.275196 0.468538,0.612488 0.618132,0.980827 0.142538,0.371162 0.208867,0.773371 0.208867,1.160057 0,0.426201 -0.06633,0.800185 -0.208867,1.192516 -0.151005,0.38104 -0.35846,0.687284 -0.618132,0.958246 -0.265317,0.280841 -0.591319,0.520756 -0.965303,0.675995 -0.364106,0.159472 -0.790307,0.254027 -1.26449,0.254027 z m -1.751376,-3.080784 c 0,0.292131 0.04375,0.563093 0.117135,0.80583 0.09738,0.238503 0.225802,0.468539 0.378218,0.639302 0.162295,0.160883 0.361283,0.314711 0.565916,0.429023 0.214511,0.09032 0.440313,0.146771 0.690107,0.146771 0.254027,0 0.484062,-0.05504 0.688695,-0.146771 0.232858,-0.114312 0.414911,-0.272373 0.575795,-0.450192 0.153827,-0.170763 0.280841,-0.37963 0.368339,-0.639302 0.1002,-0.225802 0.146771,-0.49253 0.146771,-0.784661 0,-0.286486 -0.04657,-0.553215 -0.146771,-0.784662 -0.0875,-0.242737 -0.214512,-0.453015 -0.368339,-0.644946 -0.159473,-0.189109 -0.342937,-0.311889 -0.575795,-0.4135 -0.204633,-0.115723 -0.43608,-0.14536 -0.688695,-0.14536 -0.232859,0 -0.460072,0.02964 -0.690107,0.14536 -0.204633,0.119957 -0.397976,0.246971 -0.553215,0.419145 -0.15665,0.191931 -0.285075,0.396564 -0.36975,0.639301 -0.08891,0.249794 -0.138304,0.516522 -0.138304,0.784662 z m 0,0"
       style="stroke-width:1.41126156" />
    <path
       d="m 86.184571,90.134201 v -4.293057 h -0.800185 v -0.952602 h 0.800185 v -0.814298 c 0,-0.723977 0.155239,-1.304005 0.508054,-1.713271 0.338703,-0.43608 0.79454,-0.639302 1.380214,-0.639302 0.227213,0 0.464305,0.0381 0.711276,0.110079 0.227213,0.04516 0.454426,0.138303 0.670349,0.254027 l -0.276607,0.908852 c -0.104434,-0.04093 -0.237092,-0.101611 -0.392331,-0.14536 -0.159473,-0.05645 -0.314711,-0.08891 -0.457249,-0.08891 -0.292131,0 -0.513699,0.127013 -0.667526,0.342936 -0.159473,0.220157 -0.232859,0.540513 -0.232859,0.959658 v 0.826999 h 1.518518 v 0.952602 h -1.518518 v 4.293057 h -1.243321 z m 0,0"
       style="stroke-width:1.41126156" />
    <path
       d="m 98.132311,83.189383 h -2.688453 v 6.944818 h -1.248967 v -6.944818 h -2.709622 v -1.124775 h 6.647042 z m 0,0"
       style="stroke-width:1.41126156" />
    <path
       d="m 104.14852,90.134201 h -1.26449 v -3.331988 c 0,-0.537691 -0.1002,-0.951191 -0.28649,-1.215097 -0.2004,-0.259672 -0.48124,-0.407854 -0.827,-0.407854 -0.17358,0 -0.35563,0.0381 -0.54192,0.110078 -0.1623,0.07762 -0.33306,0.153828 -0.4883,0.297776 -0.14818,0.132659 -0.28789,0.265318 -0.4135,0.420556 -0.11713,0.191932 -0.21169,0.375396 -0.2766,0.572973 v 3.554967 h -1.240504 v -8.279871 h 1.240504 v 3.52392 c 0.22721,-0.420556 0.54051,-0.740912 0.92155,-0.961069 0.39515,-0.215923 0.82982,-0.342937 1.30965,-0.342937 0.34153,0 0.64495,0.07903 0.8778,0.218746 0.25968,0.118546 0.44596,0.316123 0.59697,0.530634 0.14254,0.204633 0.23709,0.453015 0.29777,0.739501 0.0692,0.292131 0.0931,0.608254 0.0931,0.938489 v 3.631176 z m 0,0"
       style="stroke-width:1.41126156" />
    <path
       d="m 108.04078,90.234401 c -0.47701,0 -0.89474,-0.09314 -1.28707,-0.231447 -0.3627,-0.153828 -0.69293,-0.407855 -0.96531,-0.684462 -0.26531,-0.282252 -0.46995,-0.591319 -0.62377,-0.970948 -0.14819,-0.375396 -0.2131,-0.750791 -0.2131,-1.192516 0,-0.386686 0.0649,-0.790306 0.2131,-1.160057 0.15382,-0.36975 0.35846,-0.711276 0.62377,-1.001996 0.27238,-0.289308 0.60261,-0.509465 0.96531,-0.654825 0.39233,-0.169351 0.81006,-0.263906 1.28707,-0.263906 0.46289,0 0.8778,0.09879 1.24191,0.265317 0.37539,0.163707 0.7014,0.37963 0.96671,0.652003 0.26955,0.273785 0.48406,0.605431 0.61672,0.979416 0.14536,0.348581 0.21028,0.745146 0.21028,1.124775 0,0.09597 -0.01,0.196165 -0.0212,0.278019 0,0.05504 -0.0113,0.132658 -0.0212,0.187697 h -4.74325 c 0.0282,0.276608 0.079,0.519345 0.17218,0.718332 0.11008,0.206045 0.24415,0.4135 0.40362,0.554626 0.15383,0.162295 0.35281,0.263906 0.56874,0.362694 0.20322,0.08891 0.41491,0.107256 0.64918,0.107256 0.17217,0 0.326,-0.0028 0.48688,-0.03951 0.15383,-0.03952 0.30342,-0.110078 0.43749,-0.200399 0.14254,-0.05081 0.26532,-0.165118 0.36975,-0.296365 0.11432,-0.09597 0.19194,-0.239915 0.26532,-0.355638 l 1.06409,0.320356 c -0.21874,0.437491 -0.55745,0.817121 -1.03163,1.103607 -0.46572,0.276607 -1.01329,0.397976 -1.63565,0.397976 z m 1.79512,-3.522509 c -0.0325,-0.242737 -0.0889,-0.46995 -0.19334,-0.705631 -0.0988,-0.214512 -0.22721,-0.386686 -0.38104,-0.551803 -0.16088,-0.128425 -0.34294,-0.254027 -0.57438,-0.311889 -0.20464,-0.09879 -0.42197,-0.151005 -0.64636,-0.151005 -0.23145,0 -0.46854,0.05222 -0.66894,0.151005 -0.21028,0.05786 -0.39798,0.183464 -0.55321,0.311889 -0.15948,0.163706 -0.29214,0.33588 -0.39092,0.551803 -0.0946,0.235681 -0.15383,0.462894 -0.18206,0.705631 z m 0,0"
       style="stroke-width:1.41126156" />
    <path
       d="m 114.06404,90.234401 c -0.24838,0 -0.49676,-0.02823 -0.73809,-0.06633 -0.24556,-0.03105 -0.48688,-0.06774 -0.71268,-0.143948 -0.23145,-0.08326 -0.47419,-0.169352 -0.69011,-0.255439 -0.21875,-0.114312 -0.40221,-0.214511 -0.57297,-0.362694 l 0.52922,-0.852402 c 0.72257,0.508054 1.45219,0.762081 2.17616,0.762081 0.3627,0 0.66047,-0.04375 0.88204,-0.208866 0.22439,-0.128425 0.34294,-0.352816 0.34294,-0.618133 0,-0.241326 -0.12843,-0.419145 -0.38669,-0.551803 -0.24979,-0.09314 -0.64071,-0.237092 -1.17558,-0.352816 -0.36551,-0.100199 -0.68446,-0.204632 -0.94413,-0.276607 -0.26532,-0.09879 -0.49112,-0.211689 -0.64777,-0.321767 -0.15665,-0.125603 -0.27943,-0.252616 -0.36128,-0.429024 -0.072,-0.155239 -0.11573,-0.342936 -0.11573,-0.567327 0,-0.299187 0.0536,-0.571561 0.18065,-0.81712 0.12701,-0.242737 0.29495,-0.437491 0.48688,-0.580029 0.2131,-0.189109 0.45725,-0.300599 0.73386,-0.385274 0.28789,-0.08468 0.58708,-0.13407 0.92155,-0.13407 0.43185,0 0.85099,0.07903 1.24332,0.218745 0.40221,0.118546 0.77196,0.324591 1.08103,0.554626 l -0.52923,0.76067 c -0.56873,-0.434668 -1.16429,-0.661882 -1.81629,-0.661882 -0.31612,0 -0.58991,0.08185 -0.80583,0.227214 -0.22157,0.131247 -0.3387,0.334469 -0.3387,0.620955 0,0.132658 0.0183,0.215923 0.0607,0.300598 0.055,0.08609 0.12702,0.16794 0.23286,0.208867 0.11572,0.07621 0.24697,0.142537 0.40503,0.197577 0.15806,0.04234 0.37963,0.07197 0.6266,0.143948 0.40503,0.104434 0.75503,0.183464 1.03869,0.300599 0.30483,0.101611 0.54475,0.198988 0.73527,0.340114 0.19757,0.117135 0.34717,0.293542 0.43467,0.462894 0.0847,0.180641 0.13971,0.396564 0.13971,0.640713 0,0.293542 -0.072,0.546158 -0.18205,0.763492 -0.10443,0.218746 -0.26532,0.430435 -0.46431,0.594141 -0.22015,0.14536 -0.47418,0.287897 -0.7776,0.385274 -0.31189,0.05363 -0.63366,0.103023 -0.99212,0.103023 z m 0,0"
       style="stroke-width:1.41126156" />
    <path
       d="m 118.91031,90.234401 c -0.29213,0 -0.56168,-0.05504 -0.80441,-0.121369 -0.23286,-0.115723 -0.45302,-0.258261 -0.62378,-0.409266 -0.17641,-0.153827 -0.31471,-0.375395 -0.4135,-0.595552 -0.11996,-0.224391 -0.15947,-0.475595 -0.15947,-0.73809 0,-0.270962 0.0494,-0.520755 0.17781,-0.740912 0.12843,-0.249793 0.29496,-0.451604 0.53346,-0.596964 0.21451,-0.186286 0.47418,-0.303421 0.78466,-0.406443 0.30201,-0.08044 0.62943,-0.12278 1.00905,-0.12278 0.28367,0 0.55886,0.03387 0.82841,0.05645 0.27097,0.06068 0.51935,0.136892 0.73951,0.218745 v -0.430435 c 0,-0.41491 -0.12702,-0.767726 -0.36975,-1.016108 -0.24839,-0.244148 -0.62378,-0.385274 -1.08103,-0.385274 -0.32036,0 -0.64636,0.07197 -0.94413,0.197576 -0.31048,0.1002 -0.62519,0.292131 -0.9399,0.508054 l -0.39092,-0.784661 c 0.76631,-0.527812 1.56226,-0.79454 2.38926,-0.79454 0.81289,0 1.43667,0.235681 1.88827,0.639301 0.46572,0.42479 0.69011,1.011875 0.69011,1.78948 v 2.142295 c 0,0.13407 0.0282,0.249793 0.0889,0.320356 0.0395,0.05927 0.14253,0.07198 0.2766,0.07903 v 1.090905 c -0.12983,0.0028 -0.24273,0.0127 -0.34293,0.0127 -0.10585,0.01129 -0.19617,0.02258 -0.27661,0.02258 -0.23145,-0.01694 -0.42479,-0.05504 -0.5518,-0.187698 -0.11714,-0.125602 -0.19617,-0.265317 -0.23286,-0.441725 l -0.0212,-0.383863 c -0.27661,0.362694 -0.62378,0.633656 -1.00905,0.804419 -0.38246,0.176408 -0.79595,0.273785 -1.24474,0.273785 z m 0.34294,-0.930022 c 0.30342,0 0.58567,-0.02964 0.85099,-0.149593 0.27096,-0.119958 0.48548,-0.276608 0.64495,-0.464305 0.15665,-0.14536 0.23286,-0.265318 0.23286,-0.431847 v -0.784661 c -0.20464,-0.09314 -0.44737,-0.143949 -0.69011,-0.187698 -0.23145,-0.0381 -0.45866,-0.06633 -0.69011,-0.06633 -0.45019,0 -0.81712,0.115723 -1.1036,0.299187 -0.27661,0.176408 -0.4135,0.42479 -0.4135,0.73809 0,0.310478 0.10866,0.55886 0.32035,0.770549 0.2131,0.19052 0.49394,0.276607 0.84817,0.276608 z m 0,0"
       style="stroke-width:1.41126156" />
    <path
       d="m 125.36542,90.234401 c -0.61954,0 -1.09372,-0.193343 -1.39291,-0.616722 -0.32036,-0.388097 -0.47983,-1.001995 -0.47983,-1.802181 v -3.631175 h 1.24332 v 3.37856 c 0,1.076792 0.36834,1.613071 1.12478,1.613071 0.35846,0 0.71268,-0.121368 1.01752,-0.340114 0.3133,-0.217334 0.55603,-0.53769 0.73244,-0.92861 v -3.721496 h 1.26449 v 4.459586 c 0,0.13407 0.0268,0.249793 0.0734,0.320356 0.0522,0.05927 0.14253,0.07197 0.2766,0.07903 v 1.090905 c -0.13407,0.0028 -0.2512,0.0127 -0.34999,0.0127 -0.0889,0.01129 -0.1877,0.02258 -0.25403,0.02258 -0.47982,-0.03105 -0.74514,-0.254027 -0.78466,-0.629423 l -0.0452,-0.618132 c -0.2639,0.420556 -0.61248,0.756436 -1.03163,0.972359 -0.42197,0.241326 -0.88204,0.338703 -1.39433,0.338703 z m 0,0"
       style="stroke-width:1.41126156" />
    <path
       d="m 133.56909,85.24418 c -0.48548,0.03246 -0.91168,0.163706 -1.28707,0.364105 -0.36411,0.187698 -0.63507,0.493942 -0.80724,0.89474 v 3.631176 h -1.24191 v -5.949878 h 1.16993 v 1.313884 c 0.19899,-0.385274 0.46995,-0.723977 0.80583,-0.970948 0.32318,-0.261083 0.676,-0.409266 1.0401,-0.409266 0.0819,0 0.13689,0 0.18064,0 0.0536,0 0.0931,0 0.13831,0 v 1.126187 z m 0,0"
       style="stroke-width:1.41126156" />
    <path
       d="m 134.33117,90.134201 v -5.949878 h 1.24191 v 5.949878 z m 0,-6.923649 v -1.357633 h 1.24191 v 1.357633 z m 0,0"
       style="stroke-width:1.41126156" />
    <path
       d="m 136.67245,90.321899 c 0.0536,0 0.12278,-0.02823 0.20463,-0.06492 0.0833,-0.04516 0.13831,-0.121369 0.13831,-0.255439 v -1.335053 h 1.03022 v 1.546743 c 0,0.194754 -0.0536,0.365516 -0.14677,0.475595 -0.0776,0.132658 -0.18206,0.252616 -0.31048,0.309066 -0.13266,0.08326 -0.28084,0.143949 -0.43749,0.176408 -0.15947,0.03951 -0.32318,0.06492 -0.47842,0.06492 z m 0,0"
       style="stroke-width:1.41126156" />
    <path
       d="m 145.59304,90.168071 c -0.56874,0 -1.08668,-0.08891 -1.55663,-0.316122 -0.46571,-0.252616 -0.86651,-0.548981 -1.20098,-0.932844 -0.33165,-0.39092 -0.58708,-0.810064 -0.77478,-1.291304 -0.17782,-0.523578 -0.27661,-1.027399 -0.27661,-1.53263 0,-0.537691 0.11008,-1.044334 0.29919,-1.525574 0.19616,-0.500998 0.46571,-0.949779 0.80583,-1.332231 0.34717,-0.373984 0.74797,-0.675994 1.21227,-0.898974 0.45866,-0.214511 0.97236,-0.340114 1.52558,-0.340114 0.56168,0 1.07961,0.13407 1.54815,0.362695 0.46572,0.232858 0.87216,0.558859 1.19816,0.92861 0.34011,0.397975 0.59273,0.822765 0.77619,1.330819 0.18065,0.495353 0.26673,0.980827 0.26673,1.474769 0,0.539101 -0.0974,1.052801 -0.28648,1.552387 -0.20181,0.503821 -0.46149,0.924377 -0.8016,1.316707 -0.33729,0.348582 -0.75361,0.649181 -1.21227,0.889095 -0.46149,0.225802 -0.97801,0.314711 -1.52275,0.314711 z m -2.50217,-4.0729 c 0,0.38104 0.0522,0.733856 0.18346,1.081026 0.10585,0.364105 0.28084,0.688696 0.48548,0.959658 0.21592,0.276607 0.48124,0.498175 0.78466,0.653414 0.31612,0.174996 0.67599,0.245559 1.07115,0.245559 0.39233,0 0.7522,-0.07621 1.05844,-0.265317 0.31471,-0.15665 0.57862,-0.378218 0.79878,-0.653414 0.20604,-0.287897 0.36269,-0.608254 0.49535,-0.961069 0.10161,-0.328824 0.16512,-0.695752 0.16512,-1.058446 0,-0.373984 -0.0692,-0.752203 -0.1877,-1.103607 -0.12419,-0.361283 -0.29354,-0.652002 -0.51652,-0.922965 -0.21734,-0.279429 -0.47983,-0.500997 -0.78466,-0.644946 -0.30907,-0.186287 -0.64636,-0.255438 -1.02881,-0.255438 -0.39516,0 -0.75644,0.06915 -1.07115,0.255438 -0.30766,0.158061 -0.57862,0.38104 -0.80583,0.650591 -0.20464,0.265318 -0.37963,0.578618 -0.48548,0.938489 -0.11572,0.364106 -0.16229,0.712687 -0.16229,1.081027 z m 0,0"
       style="stroke-width:1.41126156" />
    <path
       d="m 155.55795,90.134201 h -1.24896 v -3.331988 c 0,-0.548981 -0.10444,-0.966715 -0.2752,-1.215097 -0.19052,-0.259672 -0.44314,-0.407854 -0.7649,-0.407854 -0.20605,0 -0.37822,0.0381 -0.55322,0.110078 -0.20181,0.07762 -0.37116,0.153828 -0.54333,0.297776 -0.15948,0.132659 -0.29637,0.265318 -0.43467,0.420556 -0.11573,0.191932 -0.20605,0.375396 -0.2752,0.572973 v 3.554967 h -1.23203 v -5.949878 h 1.12619 v 1.193927 c 0.22721,-0.403621 0.5518,-0.719743 0.97659,-0.9399 0.41773,-0.224391 0.91873,-0.364106 1.44513,-0.364106 0.33447,0 0.62237,0.07903 0.87075,0.218746 0.22862,0.100199 0.40644,0.294954 0.55463,0.508054 0.12842,0.220157 0.23709,0.475595 0.2766,0.762081 0.0452,0.292131 0.0776,0.608254 0.0776,0.938489 z m 0,0"
       style="stroke-width:1.41126156" />
    <path
       d="m 160.04012,89.813845 c -0.15947,0.05786 -0.41209,0.160883 -0.68305,0.275196 -0.2752,0.06774 -0.56874,0.122779 -0.88345,0.122779 -0.22016,0 -0.39798,-0.03246 -0.55322,-0.07621 -0.19334,-0.03528 -0.33023,-0.122779 -0.47418,-0.244148 -0.11713,-0.09455 -0.23709,-0.259672 -0.3133,-0.419145 -0.0522,-0.169351 -0.0861,-0.385274 -0.0861,-0.618132 V 85.166561 H 156.241 v -0.982238 h 0.80583 v -1.954598 h 1.22639 v 1.954598 h 1.32376 v 0.982238 h -1.32376 v 3.31223 c 0,0.206044 0.0663,0.342937 0.19899,0.441725 0.0931,0.103022 0.26531,0.12278 0.44172,0.12278 0.16089,0 0.34153,-0.0099 0.48689,-0.05645 0.17076,-0.07197 0.27519,-0.131247 0.3641,-0.174996 z m 0,0"
       style="stroke-width:1.41126156" />
    <path
       d="m 163.27614,90.234401 c -0.45301,0 -0.88909,-0.09455 -1.24896,-0.254027 -0.38105,-0.155239 -0.71128,-0.395154 -0.98083,-0.675995 -0.26532,-0.269551 -0.45866,-0.577206 -0.60543,-0.958246 -0.14677,-0.39092 -0.22298,-0.766315 -0.22298,-1.192516 0,-0.386686 0.0776,-0.790307 0.22298,-1.160057 0.14677,-0.369751 0.34011,-0.705631 0.60543,-0.980827 0.26955,-0.287897 0.6012,-0.508054 0.98083,-0.673172 0.35987,-0.166529 0.79454,-0.265317 1.24896,-0.265317 0.4756,0 0.90039,0.09879 1.28002,0.265317 0.35987,0.163707 0.68446,0.383863 0.94978,0.673172 0.26108,0.275196 0.45301,0.612488 0.61813,0.980827 0.12701,0.371162 0.20886,0.773371 0.20886,1.160057 0,0.426201 -0.0833,0.800185 -0.20886,1.192516 -0.16512,0.38104 -0.35846,0.687284 -0.61813,0.958246 -0.26532,0.280841 -0.58991,0.520756 -0.94978,0.675995 -0.37963,0.159472 -0.80442,0.254027 -1.28002,0.254027 z m -1.73444,-3.080784 c 0,0.292131 0.0127,0.563093 0.0988,0.80583 0.0988,0.238503 0.21028,0.468539 0.38527,0.639302 0.15524,0.160883 0.35705,0.314711 0.57439,0.429023 0.19899,0.09032 0.4262,0.146771 0.67458,0.146771 0.24274,0 0.4756,-0.05504 0.70563,-0.146771 0.21592,-0.114312 0.39798,-0.272373 0.57438,-0.450192 0.13831,-0.170763 0.28085,-0.37963 0.35423,-0.639302 0.0988,-0.225802 0.15242,-0.49253 0.15242,-0.784661 0,-0.286486 -0.0536,-0.553215 -0.15242,-0.784662 -0.0734,-0.242737 -0.21592,-0.453015 -0.35423,-0.644946 -0.1764,-0.189109 -0.35846,-0.311889 -0.57438,-0.4135 -0.23003,-0.115723 -0.46289,-0.14536 -0.70563,-0.14536 -0.23145,0 -0.45866,0.02964 -0.67458,0.14536 -0.21734,0.119957 -0.4135,0.246971 -0.55322,0.419145 -0.17499,0.191931 -0.28648,0.396564 -0.38527,0.639301 -0.10161,0.249794 -0.11996,0.516522 -0.11996,0.784662 z m 0,0"
       style="stroke-width:1.41126156" />
    <path
       d="m 167.18392,81.85433 h 1.26591 v 6.515794 c 0,0.218746 0.0367,0.385275 0.15665,0.529223 0.10725,0.129836 0.28225,0.165118 0.48688,0.165118 0.0833,0 0.17218,-0.01129 0.2752,-0.02964 0.12701,-0.01129 0.22157,-0.04798 0.34152,-0.09032 l 0.16653,0.994939 c -0.17641,0.0875 -0.38668,0.162295 -0.62942,0.198988 -0.24979,0.04234 -0.501,0.07621 -0.68446,0.07621 -0.41915,0 -0.77337,-0.09879 -1.01611,-0.357049 -0.23145,-0.232858 -0.36411,-0.554626 -0.36411,-1.000585 V 81.85433 Z m 0,0"
       style="stroke-width:1.41126156" />
    <path
       d="m 173.11405,90.234401 c -0.48548,0 -0.8891,-0.09455 -1.28002,-0.254027 -0.36128,-0.155239 -0.67882,-0.395154 -0.94978,-0.675995 -0.26531,-0.269551 -0.49112,-0.577206 -0.61813,-0.958246 -0.15806,-0.39092 -0.20887,-0.766315 -0.20887,-1.192516 0,-0.386686 0.0508,-0.790307 0.20887,-1.160057 0.12842,-0.369751 0.35282,-0.705631 0.61813,-0.980827 0.26955,-0.287897 0.5885,-0.508054 0.94978,-0.673172 0.39092,-0.166529 0.79454,-0.265317 1.28002,-0.265317 0.45866,0 0.86792,0.09879 1.24755,0.265317 0.39233,0.163707 0.70845,0.383863 0.97236,0.673172 0.26814,0.275196 0.46289,0.612488 0.59555,0.980827 0.15948,0.371162 0.23992,0.773371 0.23992,1.160057 0,0.426201 -0.0804,0.800185 -0.23992,1.192516 -0.13266,0.38104 -0.326,0.687284 -0.59555,0.958246 -0.26532,0.280841 -0.58003,0.520756 -0.97236,0.675995 -0.37963,0.159472 -0.78889,0.254027 -1.24755,0.254027 z m -1.7669,-3.080784 c 0,0.292131 0.0437,0.563093 0.1256,0.80583 0.0748,0.238503 0.21592,0.468539 0.36128,0.639302 0.1877,0.160883 0.36975,0.314711 0.57439,0.429023 0.19898,0.09032 0.45301,0.146771 0.70563,0.146771 0.24273,0 0.46995,-0.05504 0.67458,-0.146771 0.21451,-0.114312 0.43043,-0.272373 0.57297,-0.450192 0.15806,-0.170763 0.28225,-0.37963 0.38669,-0.639302 0.0663,-0.225802 0.12137,-0.49253 0.12137,-0.784661 0,-0.286486 -0.055,-0.553215 -0.12137,-0.784662 -0.10444,-0.242737 -0.22863,-0.453015 -0.38669,-0.644946 -0.14395,-0.189109 -0.35846,-0.311889 -0.57297,-0.4135 -0.20463,-0.115723 -0.43185,-0.14536 -0.67458,-0.14536 -0.2498,0 -0.49112,0.02964 -0.70563,0.14536 -0.20605,0.119957 -0.38387,0.246971 -0.55322,0.419145 -0.14536,0.191931 -0.28649,0.396564 -0.38104,0.639301 -0.0776,0.249794 -0.12701,0.516522 -0.12701,0.784662 z m 0,0"
       style="stroke-width:1.41126156" />
    <path
       d="m 179.3744,90.168071 c -0.42479,0 -0.77337,-0.05504 -1.10502,-0.230035 -0.33588,-0.15665 -0.62236,-0.378218 -0.84958,-0.653414 -0.23285,-0.287898 -0.43325,-0.618133 -0.55321,-0.980827 -0.14113,-0.372573 -0.1877,-0.740912 -0.1877,-1.148767 0,-0.4135 0.0466,-0.834056 0.1877,-1.182637 0.11996,-0.39092 0.32036,-0.728211 0.55321,-1.003407 0.24274,-0.270962 0.53487,-0.486885 0.87075,-0.630834 0.34858,-0.169351 0.70281,-0.263906 1.1276,-0.263906 0.47418,0 0.88486,0.127014 1.24756,0.342937 0.35846,0.218745 0.66329,0.519344 0.89474,0.894739 v -1.127597 h 1.1036 v 5.753713 c 0,0.444547 -0.0931,0.810064 -0.23144,1.147355 -0.17641,0.347171 -0.39657,0.628012 -0.68447,0.852402 -0.29213,0.224391 -0.61248,0.406444 -0.99352,0.529223 -0.39657,0.125603 -0.79454,0.165118 -1.25885,0.165118 -0.652,0 -1.20945,-0.09455 -1.65541,-0.309066 -0.40927,-0.254027 -0.77902,-0.537691 -1.08385,-0.939901 l 0.70704,-0.66047 c 0.22581,0.314711 0.52923,0.550392 0.89333,0.7268 0.326,0.153827 0.72962,0.254027 1.13889,0.254027 0.25403,0 0.50664,-0.0381 0.72821,-0.108667 0.22721,-0.07621 0.4262,-0.160884 0.61813,-0.321768 0.17077,-0.132659 0.29496,-0.314711 0.39798,-0.550392 0.11431,-0.222979 0.15947,-0.482651 0.15947,-0.784661 v -0.904619 c -0.22015,0.366928 -0.51229,0.653414 -0.85522,0.838289 -0.37963,0.217335 -0.78325,0.296365 -1.16994,0.296365 z m 0.37822,-0.993528 c 0.21169,0 0.38951,-0.03246 0.5518,-0.110078 0.18629,-0.04093 0.32883,-0.13407 0.49536,-0.254027 0.13971,-0.09455 0.28648,-0.238503 0.3768,-0.354227 0.11573,-0.159472 0.19758,-0.297776 0.2258,-0.472773 v -1.546742 c -0.14818,-0.39092 -0.38245,-0.705631 -0.71268,-0.938489 -0.32036,-0.225802 -0.65342,-0.330235 -0.99353,-0.330235 -0.2752,0 -0.52499,0.0381 -0.76208,0.165117 -0.21451,0.110079 -0.39092,0.280841 -0.5518,0.462894 -0.14395,0.198988 -0.26956,0.420556 -0.32177,0.663293 -0.0889,0.231447 -0.13266,0.475595 -0.13266,0.718332 0,0.275196 0.0494,0.53628 0.15383,0.762081 0.0677,0.261084 0.20886,0.468539 0.35422,0.639302 0.1877,0.174996 0.3754,0.32459 0.59556,0.450192 0.21592,0.09032 0.45301,0.14536 0.72115,0.14536 z m 0,0"
       style="stroke-width:1.41126156" />
    <path
       d="m 183.88903,90.134201 v -5.949878 h 1.22638 v 5.949878 z m 0,-6.923649 v -1.357633 h 1.22638 v 1.357633 z m 0,0"
       style="stroke-width:1.41126156" />
    <path
       d="m 189.20666,90.234401 c -0.4643,0 -0.89756,-0.09314 -1.26872,-0.231447 -0.38246,-0.153828 -0.71269,-0.407855 -0.98224,-0.684462 -0.26532,-0.282252 -0.46995,-0.591319 -0.60826,-0.970948 -0.16511,-0.375396 -0.24273,-0.750791 -0.24273,-1.192516 0,-0.386686 0.0776,-0.790306 0.24273,-1.160057 0.13831,-0.36975 0.34294,-0.711276 0.60826,-1.001996 0.26955,-0.289308 0.6012,-0.509465 0.98224,-0.654825 0.37257,-0.169351 0.80442,-0.263906 1.26872,-0.263906 0.46854,0 0.87781,0.09879 1.25885,0.265317 0.35987,0.163707 0.68446,0.37963 0.95119,0.652003 0.26955,0.273785 0.46995,0.605431 0.61813,0.979416 0.1383,0.348581 0.20887,0.745146 0.20887,1.124775 0,0.09597 -0.0113,0.196165 -0.0226,0.278019 0,0.05504 -0.0113,0.132658 -0.0226,0.187697 h -4.73196 c 0.003,0.276608 0.0677,0.519345 0.17076,0.718332 0.1129,0.206045 0.23286,0.4135 0.38245,0.554626 0.18064,0.162295 0.36269,0.263906 0.56733,0.362694 0.23003,0.08891 0.44172,0.107256 0.66188,0.107256 0.16088,0 0.34152,-0.0028 0.48688,-0.03951 0.16936,-0.03952 0.30343,-0.110078 0.45161,-0.200399 0.12701,-0.05081 0.26531,-0.165118 0.35422,-0.296365 0.11432,-0.09597 0.20746,-0.239915 0.25403,-0.355638 l 1.08385,0.320356 c -0.22721,0.437491 -0.5518,0.817121 -1.03869,1.103607 -0.4643,0.276607 -1.01046,0.397976 -1.63424,0.397976 z m 1.81065,-3.522509 c -0.0325,-0.242737 -0.10443,-0.46995 -0.22016,-0.705631 -0.0734,-0.214512 -0.21451,-0.386686 -0.35422,-0.551803 -0.175,-0.128425 -0.35846,-0.254027 -0.57298,-0.311889 -0.20604,-0.09879 -0.44596,-0.151005 -0.66329,-0.151005 -0.23145,0 -0.45301,0.05222 -0.652,0.151005 -0.23709,0.05786 -0.4135,0.183464 -0.55322,0.311889 -0.17499,0.163706 -0.29213,0.33588 -0.40785,0.551803 -0.10302,0.235681 -0.1383,0.462894 -0.16512,0.705631 z m 0,0"
       style="stroke-width:1.41126156" />
    <path
       d="m 195.22992,90.234401 c -0.24979,0 -0.49817,-0.02823 -0.7395,-0.06633 -0.23285,-0.03105 -0.46995,-0.06774 -0.69716,-0.143948 -0.25685,-0.08326 -0.48971,-0.169352 -0.70563,-0.255439 -0.20463,-0.114312 -0.38669,-0.214511 -0.57297,-0.362694 l 0.52922,-0.852402 c 0.73809,0.508054 1.45219,0.762081 2.16488,0.762081 0.37539,0 0.67317,-0.04375 0.89332,-0.208866 0.21593,-0.128425 0.34294,-0.352816 0.34294,-0.618133 0,-0.241326 -0.14395,-0.419145 -0.38527,-0.551803 -0.2498,-0.09314 -0.62519,-0.237092 -1.16006,-0.352816 -0.38104,-0.100199 -0.7014,-0.204632 -0.96107,-0.276607 -0.26532,-0.09879 -0.47559,-0.211689 -0.66188,-0.321767 -0.14536,-0.125603 -0.28225,-0.252616 -0.33165,-0.429024 -0.0889,-0.155239 -0.13266,-0.342936 -0.13266,-0.567327 0,-0.299187 0.0663,-0.571561 0.17359,-0.81712 0.13548,-0.242737 0.29072,-0.437491 0.50946,-0.580029 0.2004,-0.189109 0.44173,-0.300599 0.71834,-0.385274 0.28789,-0.08468 0.60261,-0.13407 0.93849,-0.13407 0.41491,0 0.85099,0.07903 1.22638,0.218745 0.41915,0.118546 0.76208,0.324591 1.08244,0.554626 l -0.53064,0.76067 c -0.56732,-0.434668 -1.17981,-0.661882 -1.79935,-0.661882 -0.32036,0 -0.59132,0.08185 -0.80583,0.227214 -0.23568,0.131247 -0.34153,0.334469 -0.34153,0.620955 0,0.132658 0.0226,0.215923 0.0663,0.300598 0.0395,0.08609 0.11149,0.16794 0.23145,0.208867 0.096,0.07621 0.23286,0.142537 0.3768,0.197577 0.1877,0.04234 0.39092,0.07197 0.64072,0.143948 0.41914,0.104434 0.74514,0.183464 1.03727,0.300599 0.30343,0.101611 0.54052,0.198988 0.74938,0.340114 0.18347,0.117135 0.31754,0.293542 0.42056,0.462894 0.0988,0.180641 0.15242,0.396564 0.15242,0.640713 0,0.293542 -0.0706,0.546158 -0.19758,0.763492 -0.0889,0.218746 -0.26532,0.430435 -0.46431,0.594141 -0.20463,0.14536 -0.45866,0.287897 -0.76208,0.385274 -0.30906,0.05363 -0.64635,0.103023 -1.00482,0.103023 z m 0,0"
       style="stroke-width:1.41126156" />
    <path
       d="m 206.67949,90.134201 -0.72539,-0.79454 c -0.34576,0.293542 -0.7268,0.51511 -1.10219,0.684462 -0.40221,0.127013 -0.83547,0.208866 -1.2532,0.208866 -0.39657,0 -0.7508,-0.07197 -1.08244,-0.166529 -0.32036,-0.142537 -0.6012,-0.297776 -0.82841,-0.485473 -0.23145,-0.230036 -0.43185,-0.479829 -0.55181,-0.771961 -0.14394,-0.287897 -0.1891,-0.596963 -0.1891,-0.88486 0,-0.272374 0.0409,-0.506643 0.10019,-0.7268 0.0988,-0.217334 0.20746,-0.410677 0.34153,-0.619544 0.14959,-0.170763 0.30342,-0.331646 0.46431,-0.506643 0.20322,-0.139715 0.38527,-0.309066 0.57297,-0.441725 -0.15948,-0.189109 -0.32459,-0.365516 -0.42056,-0.509465 -0.13125,-0.184875 -0.21451,-0.32459 -0.29777,-0.474184 -0.0889,-0.127013 -0.14819,-0.280841 -0.16512,-0.396564 -0.0127,-0.143949 -0.0226,-0.265318 -0.0226,-0.430435 0,-0.270962 0.0226,-0.519344 0.14395,-0.740912 0.11572,-0.225802 0.24414,-0.419145 0.43043,-0.595553 0.20463,-0.155239 0.43185,-0.303421 0.69575,-0.376807 0.26109,-0.09879 0.54193,-0.153827 0.85099,-0.153827 0.26955,0 0.53628,0.0508 0.78466,0.132658 0.24274,0.04657 0.45302,0.160884 0.66189,0.320357 0.17217,0.13407 0.31753,0.304832 0.42055,0.554626 0.12702,0.204632 0.16653,0.445958 0.16653,0.71692 0,0.437491 -0.13407,0.845346 -0.42055,1.192516 -0.29214,0.307655 -0.66753,0.613899 -1.08244,0.884861 l 1.79936,1.910848 c 0.12701,-0.272373 0.23003,-0.564504 0.27519,-0.843934 0.0833,-0.30201 0.13266,-0.628011 0.13266,-0.979415 h 1.03728 c -0.0169,0.496764 -0.0917,0.986471 -0.1877,1.425374 -0.13266,0.419144 -0.29213,0.832644 -0.50805,1.191104 l 1.61307,1.676579 z m -2.94813,-0.870748 c 0.28226,0 0.56027,-0.05504 0.82841,-0.176408 0.25968,-0.08468 0.49677,-0.254027 0.71834,-0.443136 l -2.09855,-2.228382 c -0.30907,0.218745 -0.55745,0.451604 -0.77196,0.694341 -0.17641,0.265317 -0.2752,0.534868 -0.2752,0.821354 0,0.204633 0.0438,0.382452 0.13266,0.551803 0.096,0.160884 0.19899,0.29072 0.36411,0.416322 0.12701,0.119957 0.28648,0.182053 0.48547,0.255439 0.18064,0.0748 0.37963,0.108667 0.61672,0.108667 z m -1.08808,-5.474284 c 0,0.0748 0.004,0.16794 0.0183,0.251205 0.0282,0.04516 0.0706,0.13407 0.13125,0.232858 0.055,0.06774 0.12136,0.170763 0.23285,0.297776 0.11432,0.1002 0.22016,0.259672 0.38528,0.397976 0.3387,-0.215923 0.60825,-0.420556 0.82841,-0.628011 0.19899,-0.193343 0.32035,-0.410678 0.32035,-0.642124 0,-0.225802 -0.0988,-0.441725 -0.25967,-0.574384 -0.1877,-0.155239 -0.39797,-0.231447 -0.65765,-0.231447 -0.29213,0 -0.53627,0.07621 -0.73244,0.276608 -0.19475,0.158061 -0.26673,0.362694 -0.26673,0.619543 z m 0,0"
       style="stroke-width:1.41126156" />
    <path
       d="m 211.20258,86.028841 c 0,-0.475595 0.0917,-0.95119 0.26955,-1.415495 0.16935,-0.505232 0.41915,-0.924376 0.75503,-1.323763 0.33023,-0.371162 0.71833,-0.684462 1.18264,-0.90603 0.50664,-0.252616 1.0528,-0.365517 1.63706,-0.365517 0.73527,0 1.36469,0.155239 1.87274,0.486885 0.51935,0.320357 0.8891,0.732445 1.16712,1.280015 l -1.002,0.652002 c -0.10161,-0.22439 -0.25967,-0.426201 -0.39798,-0.618132 -0.17499,-0.155239 -0.33588,-0.30201 -0.53486,-0.376807 -0.18206,-0.115723 -0.36411,-0.197577 -0.55745,-0.211689 -0.20887,-0.03669 -0.39233,-0.06351 -0.5631,-0.06351 -0.42478,0 -0.79877,0.06915 -1.08949,0.255438 -0.3133,0.158062 -0.5772,0.381041 -0.80724,0.650592 -0.20604,0.276607 -0.35987,0.602609 -0.48689,0.959658 -0.0889,0.354226 -0.14536,0.691518 -0.14536,1.038688 0,0.409266 0.0663,0.767726 0.16653,1.127598 0.14254,0.362694 0.30907,0.687284 0.52923,0.959658 0.22721,0.275196 0.49817,0.491119 0.80583,0.629423 0.31612,0.174996 0.66893,0.245559 1.03869,0.245559 0.19193,0 0.39091,-0.0056 0.59555,-0.04798 0.23144,-0.05504 0.41914,-0.142537 0.59696,-0.235681 0.19758,-0.121368 0.36411,-0.266728 0.50664,-0.4262 0.17077,-0.155239 0.28649,-0.385275 0.40786,-0.618133 l 1.06127,0.596964 c -0.12561,0.307655 -0.326,0.580028 -0.55322,0.804419 -0.22015,0.231447 -0.47559,0.457248 -0.76208,0.595552 -0.29213,0.151005 -0.60825,0.282252 -0.93849,0.364105 -0.33588,0.06915 -0.63648,0.1002 -0.94978,0.1002 -0.56873,0 -1.07679,-0.1002 -1.55662,-0.331646 -0.45301,-0.251205 -0.86651,-0.551804 -1.18264,-0.959658 -0.33588,-0.393742 -0.59131,-0.832645 -0.79454,-1.315296 -0.17358,-0.489708 -0.27096,-1.014697 -0.27096,-1.531219 z m 0,0"
       style="stroke-width:1.41126156" />
    <path
       d="m 218.9363,81.85433 h 1.2786 v 6.515794 c 0,0.218746 0.055,0.385275 0.14536,0.529223 0.12701,0.129836 0.28084,0.165118 0.49112,0.165118 0.0776,0 0.18205,-0.01129 0.27096,-0.02964 0.12701,-0.01129 0.25262,-0.04798 0.34152,-0.09032 l 0.19899,0.994939 c -0.20886,0.0875 -0.41914,0.162295 -0.66329,0.198988 -0.24838,0.04234 -0.46854,0.07621 -0.68305,0.07621 -0.42056,0 -0.77337,-0.09879 -1.01611,-0.357049 -0.23286,-0.232858 -0.3641,-0.554626 -0.3641,-1.000585 z m 0,0"
       style="stroke-width:1.41126156" />
    <path
       d="m 223.82067,90.234401 c -0.29213,0 -0.56309,-0.05504 -0.80583,-0.121369 -0.24697,-0.115723 -0.46854,-0.258261 -0.6393,-0.409266 -0.16088,-0.153827 -0.31471,-0.375395 -0.42197,-0.595552 -0.0974,-0.224391 -0.15241,-0.475595 -0.15241,-0.73809 0,-0.270962 0.0663,-0.520755 0.16653,-0.740912 0.14253,-0.249793 0.30906,-0.451604 0.53769,-0.596964 0.23991,-0.186286 0.49958,-0.303421 0.80724,-0.406443 0.29495,-0.08044 0.61531,-0.12278 0.99494,-0.12278 0.28648,0 0.56168,0.03387 0.82841,0.05645 0.26955,0.06068 0.51793,0.136892 0.7395,0.218745 v -0.430435 c 0,-0.41491 -0.11149,-0.767726 -0.35423,-1.016108 -0.26108,-0.244148 -0.62378,-0.385274 -1.09937,-0.385274 -0.30342,0 -0.62801,0.07197 -0.94272,0.197576 -0.30907,0.1002 -0.62237,0.292131 -0.93849,0.508054 l -0.37681,-0.784661 c 0.75079,-0.527812 1.54674,-0.79454 2.37515,-0.79454 0.81148,0 1.45078,0.235681 1.88827,0.639301 0.47842,0.42479 0.70704,1.011875 0.70704,1.78948 v 2.142295 c 0,0.13407 0.0268,0.249793 0.055,0.320356 0.055,0.05927 0.15948,0.07198 0.27943,0.07903 v 1.090905 c -0.10302,0.0028 -0.23003,0.0127 -0.31471,0.0127 -0.11996,0.01129 -0.22439,0.02258 -0.27519,0.02258 -0.2498,-0.01694 -0.44173,-0.05504 -0.55181,-0.187698 -0.13266,-0.125602 -0.2258,-0.265317 -0.24979,-0.441725 l -0.006,-0.383863 c -0.27519,0.362694 -0.62236,0.633656 -1.02598,0.804419 -0.3627,0.176408 -0.79313,0.273785 -1.22498,0.273785 z m 0.33588,-0.930022 c 0.27802,0 0.55886,-0.02964 0.82418,-0.149593 0.28225,-0.119958 0.51793,-0.276608 0.66188,-0.464305 0.16794,-0.14536 0.23286,-0.265318 0.23286,-0.431847 v -0.784661 c -0.20605,-0.09314 -0.43185,-0.143949 -0.67458,-0.187698 -0.23286,-0.0381 -0.48971,-0.06633 -0.70705,-0.06633 -0.43749,0 -0.81712,0.115723 -1.1036,0.299187 -0.2752,0.176408 -0.39798,0.42479 -0.39798,0.73809 0,0.310478 0.0847,0.55886 0.32036,0.770549 0.21592,0.19052 0.49676,0.276607 0.84393,0.276608 z m 0,0"
       style="stroke-width:1.41126156" />
    <path
       d="m 230.65541,90.234401 c -0.24838,0 -0.49676,-0.02823 -0.7395,-0.06633 -0.24133,-0.03105 -0.49959,-0.06774 -0.72821,-0.143948 -0.23145,-0.08326 -0.45866,-0.169352 -0.67458,-0.255439 -0.22722,-0.114312 -0.41915,-0.214511 -0.57439,-0.362694 l 0.53064,-0.852402 c 0.70704,0.508054 1.45077,0.762081 2.16487,0.762081 0.3754,0 0.67317,-0.04375 0.89333,-0.208866 0.21592,-0.128425 0.34153,-0.352816 0.34153,-0.618133 0,-0.241326 -0.14254,-0.419145 -0.38528,-0.551803 -0.24838,-0.09314 -0.65624,-0.237092 -1.19251,-0.352816 -0.35423,-0.100199 -0.66894,-0.204632 -0.9272,-0.276607 -0.26532,-0.09879 -0.50665,-0.211689 -0.6633,-0.321767 -0.14536,-0.125603 -0.28084,-0.252616 -0.3641,-0.429024 -0.0565,-0.155239 -0.0988,-0.342936 -0.0988,-0.567327 0,-0.299187 0.0452,-0.571561 0.16512,-0.81712 0.14395,-0.242737 0.29777,-0.437491 0.48688,-0.580029 0.22722,-0.189109 0.47419,-0.300599 0.74938,-0.385274 0.28649,-0.08468 0.58568,-0.13407 0.90744,-0.13407 0.44596,0 0.85099,0.07903 1.25744,0.218745 0.38668,0.118546 0.76208,0.324591 1.08385,0.554626 l -0.53064,0.76067 c -0.56874,-0.434668 -1.18122,-0.661882 -1.83182,-0.661882 -0.29918,0 -0.58426,0.08185 -0.80583,0.227214 -0.22156,0.131247 -0.33164,0.334469 -0.33164,0.620955 0,0.132658 0.0141,0.215923 0.0564,0.300598 0.0536,0.08609 0.14254,0.16794 0.23286,0.208867 0.11431,0.07621 0.25967,0.142537 0.40644,0.197577 0.15383,0.04234 0.39092,0.07197 0.6393,0.143948 0.38669,0.104434 0.74515,0.183464 1.03869,0.300599 0.30342,0.101611 0.54051,0.198988 0.71833,0.340114 0.2131,0.117135 0.34717,0.293542 0.45161,0.462894 0.0663,0.180641 0.12136,0.396564 0.12136,0.640713 0,0.293542 -0.0677,0.546158 -0.16511,0.763492 -0.12137,0.218746 -0.26532,0.430435 -0.46572,0.594141 -0.23568,0.14536 -0.48971,0.287897 -0.79313,0.385274 -0.29919,0.05363 -0.6139,0.103023 -0.97377,0.103023 z m 0,0"
       style="stroke-width:1.41126156" />
    <path
       d="m 236.13252,90.234401 c -0.24839,0 -0.49677,-0.02823 -0.7395,-0.06633 -0.23145,-0.03105 -0.49112,-0.06774 -0.72822,-0.143948 -0.23144,-0.08326 -0.45866,-0.169352 -0.67458,-0.255439 -0.20604,-0.114312 -0.41914,-0.214511 -0.57438,-0.362694 l 0.53063,-0.852402 c 0.70704,0.508054 1.45078,0.762081 2.16347,0.762081 0.37539,0 0.67458,-0.04375 0.89474,-0.208866 0.21451,-0.128425 0.34152,-0.352816 0.34152,-0.618133 0,-0.241326 -0.14254,-0.419145 -0.38527,-0.551803 -0.24838,-0.09314 -0.65624,-0.237092 -1.19252,-0.352816 -0.34858,-0.100199 -0.66894,-0.204632 -0.9272,-0.276607 -0.26531,-0.09879 -0.49112,-0.211689 -0.66329,-0.321767 -0.14395,-0.125603 -0.28084,-0.252616 -0.36411,-0.429024 -0.0564,-0.155239 -0.0988,-0.342936 -0.0988,-0.567327 0,-0.299187 0.0649,-0.571561 0.16511,-0.81712 0.14395,-0.242737 0.29778,-0.437491 0.48689,-0.580029 0.23003,-0.189109 0.47418,-0.300599 0.74938,-0.385274 0.28648,-0.08468 0.6012,-0.13407 0.90744,-0.13407 0.44455,0 0.84958,0.07903 1.25743,0.218745 0.3881,0.118546 0.76208,0.324591 1.08385,0.554626 l -0.53063,0.76067 c -0.56874,-0.434668 -1.18123,-0.661882 -1.82617,-0.661882 -0.29496,0 -0.56451,0.08185 -0.81148,0.227214 -0.22157,0.131247 -0.31048,0.334469 -0.31048,0.620955 0,0.132658 0.0169,0.215923 0.0325,0.300598 0.055,0.08609 0.14395,0.16794 0.26532,0.208867 0.0847,0.07621 0.23145,0.142537 0.37681,0.197577 0.18064,0.04234 0.39092,0.07197 0.6393,0.143948 0.38668,0.104434 0.74514,0.183464 1.03727,0.300599 0.30484,0.101611 0.54193,0.198988 0.71975,0.340114 0.2131,0.117135 0.34717,0.293542 0.45019,0.462894 0.0889,0.180641 0.12278,0.396564 0.12278,0.640713 0,0.293542 -0.0409,0.546158 -0.16512,0.763492 -0.12137,0.218746 -0.26531,0.430435 -0.4643,0.594141 -0.23568,0.14536 -0.49112,0.287897 -0.79031,0.385274 -0.28225,0.05363 -0.61954,0.103023 -0.978,0.103023 z m 0,0"
       style="stroke-width:1.41126156" />
    <path
       d="m 239.37418,90.134201 v -5.949878 h 1.25885 v 5.949878 z m 0,-6.923649 v -1.357633 h 1.25885 v 1.357633 z m 0,0"
       style="stroke-width:1.41126156" />
    <path
       d="m 242.36606,85.841144 h -0.78466 v -0.952602 h 0.78466 v -0.814298 c 0,-0.285075 0.0494,-0.57015 0.15383,-0.862281 0.10443,-0.286486 0.24273,-0.534868 0.42055,-0.77196 0.2131,-0.214511 0.45725,-0.38104 0.74938,-0.530634 0.28649,-0.108667 0.59697,-0.187698 0.99353,-0.187698 0.43044,0 0.79031,0.07903 1.12619,0.187698 0.34858,0.149594 0.64635,0.287897 0.89474,0.475595 l -0.50806,0.90603 c -0.19193,-0.127014 -0.39656,-0.259672 -0.6393,-0.330235 -0.24838,-0.115724 -0.51934,-0.176408 -0.80583,-0.176408 -0.18911,0 -0.38104,0.04798 -0.50805,0.131247 -0.14677,0.05363 -0.24274,0.149594 -0.34153,0.275196 -0.10302,0.1002 -0.17217,0.261084 -0.20887,0.397976 -0.0437,0.165118 -0.0663,0.304833 -0.0663,0.474184 v 0.826999 h 3.12453 v 5.245659 H 245.492 v -4.293057 h -1.86568 v 4.293057 h -1.25885 v -4.294468 z m 0,0"
       style="stroke-width:1.41126156" />
    <path
       d="m 247.58914,87.132448 c 0,-0.403621 0.072,-0.811476 0.23568,-1.160057 0.12842,-0.375396 0.32177,-0.705631 0.6012,-0.979416 0.26531,-0.289308 0.59273,-0.509465 0.98929,-0.654825 0.37963,-0.169351 0.80583,-0.263906 1.27014,-0.263906 0.60684,0 1.13183,0.148183 1.59754,0.407855 0.43467,0.265317 0.77055,0.629422 0.97377,1.059857 l -1.21368,0.409266 c -0.13266,-0.244148 -0.32318,-0.45866 -0.59273,-0.572972 -0.23568,-0.160884 -0.50523,-0.210278 -0.80865,-0.210278 -0.24839,0 -0.4756,0.02964 -0.67459,0.14536 -0.20604,0.101611 -0.41914,0.22439 -0.57438,0.413499 -0.15242,0.174997 -0.28649,0.381041 -0.38527,0.622367 -0.0565,0.231447 -0.1002,0.498175 -0.1002,0.784661 0,0.292131 0.0494,0.563093 0.12278,0.80583 0.0988,0.261084 0.21592,0.468539 0.38527,0.639302 0.15524,0.177819 0.36975,0.33588 0.57438,0.450192 0.21452,0.09032 0.44173,0.146771 0.67459,0.146771 0.15947,0 0.29777,-0.02117 0.47418,-0.06633 0.1383,-0.05504 0.29778,-0.08891 0.39798,-0.165117 0.14253,-0.08326 0.23709,-0.182053 0.34152,-0.254027 0.0974,-0.117135 0.14395,-0.210278 0.1877,-0.342937 l 1.25884,0.385274 c -0.21874,0.437491 -0.53627,0.817121 -1.02598,1.103607 -0.45302,0.276607 -0.9893,0.397976 -1.61307,0.397976 -0.46431,0 -0.89192,-0.09455 -1.27014,-0.254027 -0.38104,-0.155239 -0.71128,-0.395154 -0.98083,-0.675995 -0.26531,-0.270962 -0.46995,-0.599786 -0.60966,-0.979415 -0.16371,-0.375396 -0.23568,-0.752203 -0.23568,-1.192516 z m 0,0"
       style="stroke-width:1.41126156" />
    <path
       d="m 255.6926,90.234401 c -0.29213,0 -0.56309,-0.05504 -0.80583,-0.121369 -0.23145,-0.115723 -0.43749,-0.258261 -0.6393,-0.409266 -0.16088,-0.153827 -0.30342,-0.375395 -0.39798,-0.595552 -0.12136,-0.224391 -0.1764,-0.475595 -0.1764,-0.73809 0,-0.270962 0.0663,-0.520755 0.19898,-0.740912 0.11008,-0.249793 0.30907,-0.451604 0.52923,-0.596964 0.21592,-0.186286 0.47559,-0.303421 0.78466,-0.406443 0.30342,-0.08044 0.64636,-0.12278 0.99494,-0.12278 0.28648,0 0.56168,0.03387 0.82841,0.05645 0.26955,0.06068 0.51793,0.136892 0.77196,0.218745 v -0.430435 c 0,-0.41491 -0.14395,-0.767726 -0.38669,-1.016108 -0.24838,-0.244148 -0.62236,-0.385274 -1.08243,-0.385274 -0.32036,0 -0.64495,0.07197 -0.95966,0.197576 -0.30484,0.1002 -0.59556,0.292131 -0.90744,0.508054 l -0.40786,-0.784661 c 0.75079,-0.527812 1.56086,-0.79454 2.37939,-0.79454 0.83264,0 1.44654,0.235681 1.91508,0.639301 0.44737,0.42479 0.67458,1.011875 0.67458,1.78948 v 2.142295 c 0,0.13407 0.0282,0.249793 0.0889,0.320356 0.055,0.05927 0.12843,0.07198 0.2752,0.07903 v 1.090905 c -0.13125,0.0028 -0.2258,0.0127 -0.34153,0.0127 -0.11854,0.01129 -0.19334,0.02258 -0.27519,0.02258 -0.23145,-0.01694 -0.40927,-0.05504 -0.55322,-0.187698 -0.12983,-0.125602 -0.19334,-0.265317 -0.23144,-0.441725 l -0.0226,-0.383863 c -0.2752,0.362694 -0.62237,0.633656 -0.99353,0.804419 -0.39798,0.176408 -0.80583,0.273785 -1.26026,0.273785 z m 0.34153,-0.930022 c 0.30342,0 0.58426,-0.02964 0.85099,-0.149593 0.26955,-0.119958 0.48688,-0.276608 0.63224,-0.464305 0.16794,-0.14536 0.2625,-0.265318 0.2625,-0.431847 v -0.784661 c -0.23709,-0.09314 -0.4629,-0.143949 -0.70704,-0.187698 -0.23145,-0.0381 -0.45725,-0.06633 -0.67459,-0.06633 -0.46854,0 -0.81712,0.115723 -1.1036,0.299187 -0.2752,0.176408 -0.43044,0.42479 -0.43044,0.73809 0,0.310478 0.11572,0.55886 0.32036,0.770549 0.21592,0.19052 0.49676,0.276607 0.84958,0.276608 z m 0,0"
       style="stroke-width:1.41126156" />
    <path
       d="m 263.57026,89.813845 c -0.19334,0.05786 -0.4135,0.160883 -0.68446,0.275196 -0.27519,0.06774 -0.58426,0.122779 -0.9145,0.122779 -0.18911,0 -0.36551,-0.03246 -0.55321,-0.07621 -0.15947,-0.03528 -0.30907,-0.122779 -0.44173,-0.244148 -0.14677,-0.09455 -0.23709,-0.259672 -0.32035,-0.419145 -0.0776,-0.169351 -0.0946,-0.385274 -0.0946,-0.618132 v -3.687626 h -0.82135 v -0.982238 h 0.82135 v -1.954598 h 1.24332 v 1.954598 h 1.29272 v 0.982238 h -1.29272 v 3.31223 c 0,0.206044 0.0663,0.342937 0.16653,0.441725 0.12561,0.103022 0.26532,0.12278 0.47419,0.12278 0.15383,0 0.32318,-0.0099 0.48547,-0.05645 0.13972,-0.07197 0.27661,-0.131247 0.36411,-0.174996 z m 0,0"
       style="stroke-width:1.41126156" />
    <path
       d="m 264.20533,90.134201 v -5.949878 h 1.25885 v 5.949878 z m 0,-6.923649 v -1.357633 h 1.25885 v 1.357633 z m 0,0"
       style="stroke-width:1.41126156" />
    <path
       d="m 269.51026,90.234401 c -0.45301,0 -0.88768,-0.09455 -1.24755,-0.254027 -0.38104,-0.155239 -0.71269,-0.395154 -0.98224,-0.675995 -0.26532,-0.269551 -0.45866,-0.577206 -0.61813,-0.958246 -0.13407,-0.39092 -0.21028,-0.766315 -0.21028,-1.192516 0,-0.386686 0.0776,-0.790307 0.21028,-1.160057 0.15806,-0.369751 0.35281,-0.705631 0.61813,-0.980827 0.26955,-0.287897 0.60261,-0.508054 0.98224,-0.673172 0.35987,-0.166529 0.79454,-0.265317 1.24755,-0.265317 0.45866,0 0.90039,0.09879 1.24897,0.265317 0.39092,0.163707 0.71692,0.383863 0.98224,0.673172 0.25967,0.275196 0.4516,0.612488 0.61813,0.980827 0.12842,0.371162 0.20887,0.773371 0.20887,1.160057 0,0.426201 -0.0819,0.800185 -0.20887,1.192516 -0.16512,0.38104 -0.35846,0.687284 -0.61813,0.958246 -0.26532,0.280841 -0.59132,0.520756 -0.98224,0.675995 -0.34858,0.159472 -0.79031,0.254027 -1.24897,0.254027 z m -1.76549,-3.080784 c 0,0.292131 0.0437,0.563093 0.13266,0.80583 0.0974,0.238503 0.20887,0.468539 0.38528,0.639302 0.15383,0.160883 0.33729,0.314711 0.56591,0.429023 0.20605,0.09032 0.43326,0.146771 0.68023,0.146771 0.24415,0 0.46995,-0.05504 0.69152,-0.146771 0.23004,-0.114312 0.41209,-0.272373 0.55745,-0.450192 0.17076,-0.170763 0.28225,-0.37963 0.38527,-0.639302 0.0988,-0.225802 0.15383,-0.49253 0.15383,-0.784661 0,-0.286486 -0.055,-0.553215 -0.15383,-0.784662 -0.10302,-0.242737 -0.21451,-0.453015 -0.38527,-0.644946 -0.14536,-0.189109 -0.326,-0.311889 -0.55745,-0.4135 -0.22157,-0.115723 -0.44737,-0.14536 -0.69152,-0.14536 -0.23145,0 -0.45866,0.02964 -0.68023,0.14536 -0.22862,0.119957 -0.40644,0.246971 -0.5518,0.419145 -0.16935,0.191931 -0.28366,0.396564 -0.38104,0.639301 -0.10161,0.249794 -0.15101,0.516522 -0.15101,0.784662 z m 0,0"
       style="stroke-width:1.41126156" />
    <path
       d="m 278.76249,90.134201 h -1.26731 v -3.331988 c 0,-0.548981 -0.10443,-0.966715 -0.27661,-1.215097 -0.15947,-0.259672 -0.41491,-0.407854 -0.76208,-0.407854 -0.18911,0 -0.38104,0.0381 -0.5518,0.110078 -0.18911,0.07762 -0.3754,0.153828 -0.53064,0.297776 -0.17499,0.132659 -0.30906,0.265318 -0.4516,0.420556 -0.0988,0.191932 -0.20463,0.375396 -0.2752,0.572973 v 3.554967 h -1.22638 v -5.949878 h 1.12618 v 1.193927 c 0.22722,-0.403621 0.5631,-0.719743 0.97236,-0.9399 0.44596,-0.224391 0.92015,-0.364106 1.44514,-0.364106 0.35846,0 0.65059,0.07903 0.87216,0.218746 0.2258,0.100199 0.40362,0.294954 0.5518,0.508054 0.12842,0.220157 0.2385,0.475595 0.29919,0.762081 0.055,0.292131 0.0762,0.608254 0.0762,0.938489 v 3.631176 z m 0,0"
       style="stroke-width:1.41126156" />
    <path
       d="m 282.14811,90.234401 c -0.24979,0 -0.49818,-0.02823 -0.7395,-0.06633 -0.23286,-0.03105 -0.46995,-0.06774 -0.7268,-0.143948 -0.23427,-0.08326 -0.46007,-0.169352 -0.676,-0.255439 -0.20463,-0.114312 -0.41773,-0.214511 -0.57297,-0.362694 l 0.52923,-0.852402 c 0.72115,0.508054 1.45218,0.762081 2.16487,0.762081 0.3754,0 0.67317,-0.04375 0.89333,-0.208866 0.21592,-0.128425 0.34294,-0.352816 0.34294,-0.618133 0,-0.241326 -0.14395,-0.419145 -0.38528,-0.551803 -0.24979,-0.09314 -0.64071,-0.237092 -1.18969,-0.352816 -0.35141,-0.100199 -0.67317,-0.204632 -0.93143,-0.276607 -0.26532,-0.09879 -0.4756,-0.211689 -0.66189,-0.321767 -0.14536,-0.125603 -0.28225,-0.252616 -0.33447,-0.429024 -0.0861,-0.155239 -0.12983,-0.342936 -0.12983,-0.567327 0,-0.299187 0.0663,-0.571561 0.16512,-0.81712 0.14394,-0.242737 0.29918,-0.437491 0.51511,-0.580029 0.20322,-0.189109 0.44454,-0.300599 0.72115,-0.385274 0.2879,-0.08468 0.60261,-0.13407 0.93426,-0.13407 0.41914,0 0.82417,0.07903 1.23062,0.218745 0.41773,0.118546 0.76208,0.324591 1.08243,0.554626 l -0.53063,0.76067 c -0.56733,-0.434668 -1.18123,-0.661882 -1.79936,-0.661882 -0.32036,0 -0.59132,0.08185 -0.81712,0.227214 -0.24132,0.131247 -0.33023,0.334469 -0.33023,0.620955 0,0.132658 0.0226,0.215923 0.0635,0.300598 0.0268,0.08609 0.11431,0.16794 0.23427,0.208867 0.0847,0.07621 0.23286,0.142537 0.37681,0.197577 0.1877,0.04234 0.39092,0.07197 0.64071,0.143948 0.40927,0.104434 0.74515,0.183464 1.03728,0.300599 0.30342,0.101611 0.54051,0.198988 0.73668,0.340114 0.19616,0.117135 0.32741,0.293542 0.43325,0.462894 0.0988,0.180641 0.12137,0.396564 0.12137,0.640713 0,0.293542 -0.0381,0.546158 -0.16511,0.763492 -0.1002,0.218746 -0.26532,0.430435 -0.46431,0.594141 -0.20463,0.14536 -0.4756,0.287897 -0.76208,0.385274 -0.31189,0.05363 -0.64777,0.103023 -1.00623,0.103023 z m 0,0"
       style="stroke-width:1.41126156" />
    <g transform="matrix(1.4112615,0,0,1.4112615,2,2.7347734)">
      <path
         d="m 168.586,67.949 c 7.214,9.187 18.42,15.098 30.979,15.098 21.711,0 39.375,-17.663 39.375,-39.374 0,-21.712 -17.664,-39.376 -39.375,-39.376 -16.499,0 -30.661,10.201 -36.51,24.627 h -4.6 C 164.518,12.079 180.658,0 199.566,0 c 24.081,0 43.672,19.591 43.672,43.673 0,24.08 -19.591,43.671 -43.672,43.671 -15.104,0 -28.44,-7.707 -36.286,-19.394" />
    </g>
    <path
       d="m 23.528794,87.132448 c 0,-0.403621 0.07197,-0.811476 0.235681,-1.160057 0.128425,-0.375396 0.321768,-0.705631 0.601197,-0.979416 0.265317,-0.289308 0.59273,-0.509465 0.989295,-0.654825 0.379629,-0.169351 0.80583,-0.263906 1.270135,-0.263906 0.606842,0 1.131832,0.148183 1.597548,0.407855 0.434669,0.265317 0.770549,0.629422 0.97377,1.059857 l -1.213684,0.409266 c -0.132659,-0.244148 -0.323179,-0.45866 -0.59273,-0.572972 -0.235681,-0.160884 -0.505232,-0.210278 -0.808653,-0.210278 -0.248382,0 -0.475595,0.02964 -0.674583,0.14536 -0.206044,0.101611 -0.419145,0.22439 -0.574384,0.413499 -0.152416,0.174997 -0.286486,0.381041 -0.385274,0.622367 -0.05645,0.231447 -0.1002,0.498175 -0.1002,0.784661 0,0.292131 0.0494,0.563093 0.12278,0.80583 0.09879,0.261084 0.215923,0.468539 0.385275,0.639302 0.155238,0.177819 0.36975,0.33588 0.574383,0.450192 0.214512,0.09032 0.441725,0.146771 0.674583,0.146771 0.159473,0 0.297776,-0.02117 0.474184,-0.06633 0.138304,-0.05504 0.297776,-0.08891 0.397976,-0.165117 0.142537,-0.08326 0.237092,-0.182053 0.341525,-0.254027 0.09738,-0.117135 0.143949,-0.210278 0.187698,-0.342937 l 1.258845,0.385274 c -0.218746,0.437491 -0.536279,0.817121 -1.025987,1.103607 -0.453015,0.276607 -0.989294,0.397976 -1.613072,0.397976 -0.464305,0 -0.891917,-0.09455 -1.270135,-0.254027 -0.381041,-0.155239 -0.711276,-0.395154 -0.980827,-0.675995 -0.265317,-0.270962 -0.46995,-0.599786 -0.609665,-0.979415 -0.163706,-0.375396 -0.235681,-0.752203 -0.235681,-1.192516 z m 0,0"
       style="stroke-width:1.41126156" />
    <path
       d="m 21.279243,90.134201 v -5.949878 h 1.24191 v 5.949878 z m 0,-6.923649 v -1.357633 h 1.24191 v 1.357633 z m 0,0"
       style="stroke-width:1.41126156" />
  </g>
</svg>
