<?xml version="1.0" encoding="utf-8"?>
<!DOCTYPE svg PUBLIC "-//W3C//DTD SVG 1.1//EN" "http://www.w3.org/Graphics/SVG/1.1/DTD/svg11.dtd">
<svg version="1.1" xmlns="http://www.w3.org/2000/svg" x="0px" y="0px"
	 width="243.238px" height="87.344px" viewBox="0 0 243.238 87.344" enable-background="new 0 0 243.238 87.344">
<path fill="#DD1D00" d="M22.296,46.906c0,1.18-0.238,2.211-0.703,3.094c-0.461,0.875-1.101,1.617-1.922,2.219
	c-0.824,0.595-1.777,1.051-2.859,1.359c-1.074,0.313-2.223,0.469-3.437,0.469H0V26.36h14.812c0.965,0,1.836,0.21,2.609,0.625
	c0.778,0.417,1.442,0.96,1.985,1.625c0.551,0.656,0.976,1.41,1.281,2.25c0.301,0.843,0.453,1.699,0.453,2.562
	c0,1.344-0.34,2.613-1.015,3.797c-0.68,1.188-1.668,2.066-2.969,2.625c1.582,0.469,2.832,1.316,3.75,2.531
	C21.832,43.586,22.296,45.098,22.296,46.906L22.296,46.906z M16.875,45.891c0-0.489-0.086-0.957-0.25-1.406
	c-0.168-0.458-0.399-0.852-0.688-1.188c-0.281-0.34-0.621-0.613-1.016-0.812c-0.386-0.196-0.816-0.297-1.281-0.297H5.375v7.297h8
	c0.488,0,0.945-0.086,1.375-0.267c0.433-0.184,0.812-0.441,1.125-0.766c0.308-0.32,0.554-0.703,0.734-1.14
	C16.785,46.867,16.875,46.391,16.875,45.891L16.875,45.891z M5.375,30.953v6.985h7.171c0.915,0,1.692-0.313,2.329-0.938
	c0.632-0.621,0.953-1.476,0.953-2.562c0-1.071-0.293-1.922-0.875-2.547c-0.586-0.621-1.309-0.938-2.172-0.938H5.375z M5.375,30.953"
	/>
<path fill="#DD1D00" d="M23.222,54.047L34.144,26.36h4.359l10.891,27.687h-5.703l-2.531-6.906h-9.703l-2.547,6.906H23.222z
	 M36.332,32.172L32.347,43.36h7.844L36.332,32.172z M36.332,32.172"/>
<path fill="#DD1D00" d="M52.421,54.047V26.36h12.235c1.277,0,2.457,0.269,3.531,0.796c1.082,0.532,2.016,1.239,2.797,2.11
	c0.777,0.867,1.391,1.855,1.828,2.969c0.445,1.105,0.672,2.214,0.672,3.328c0,1.793-0.457,3.425-1.359,4.89
	c-0.899,1.469-2.114,2.535-3.641,3.188L75,54.047h-6.079l-5.812-9.281h-5.313v9.281H52.421z M57.796,40.047h6.75
	c0.489,0,0.946-0.113,1.375-0.344c0.434-0.238,0.813-0.554,1.125-0.953c0.309-0.402,0.555-0.879,0.735-1.422
	c0.183-0.551,0.281-1.14,0.281-1.765c0-0.653-0.105-1.254-0.312-1.797c-0.211-0.539-0.493-1.016-0.844-1.422
	c-0.356-0.402-0.762-0.719-1.219-0.938c-0.449-0.214-0.91-0.328-1.375-0.328h-6.516V40.047z M57.796,40.047"/>
<path fill="#DD1D00" d="M98.808,31.078h-8.812v22.969h-5.375V31.078h-8.86V26.36h23.047V31.078z M98.808,31.078"/>
<path fill="#DD1D00" d="M112.945,54.235c-1.949,0-3.73-0.396-5.344-1.188c-1.617-0.789-3.004-1.844-4.156-3.156
	c-1.156-1.309-2.051-2.813-2.672-4.5c-0.625-1.684-0.937-3.414-0.937-5.188c0-1.84,0.332-3.609,1-5.297
	c0.664-1.695,1.585-3.191,2.765-4.484c1.184-1.301,2.582-2.336,4.188-3.109c1.613-0.77,3.375-1.157,5.281-1.157
	c1.945,0,3.723,0.414,5.328,1.235c1.613,0.824,2.992,1.898,4.141,3.219c1.145,1.324,2.031,2.835,2.656,4.531
	c0.621,1.687,0.938,3.402,0.938,5.14c0,1.844-0.336,3.606-1,5.282c-0.668,1.679-1.586,3.164-2.75,4.453
	c-1.168,1.281-2.559,2.309-4.172,3.078C116.593,53.856,114.839,54.235,112.945,54.235L112.945,54.235z M105.257,40.203
	c0,1.199,0.176,2.356,0.532,3.469c0.351,1.117,0.859,2.105,1.515,2.969c0.664,0.855,1.477,1.543,2.438,2.063
	c0.965,0.523,2.063,0.782,3.281,0.782c1.246,0,2.348-0.267,3.297-0.797c0.945-0.528,1.742-1.239,2.391-2.126
	c0.652-0.882,1.148-1.878,1.484-2.984c0.34-1.101,0.516-2.226,0.516-3.375c0-1.195-0.184-2.351-0.547-3.468
	c-0.367-1.122-0.883-2.114-1.547-2.969c-0.656-0.852-1.465-1.535-2.422-2.047c-0.949-0.508-2.02-0.766-3.203-0.766
	c-1.25,0-2.352,0.274-3.297,0.813c-0.949,0.531-1.758,1.238-2.422,2.109c-0.668,0.867-1.176,1.852-1.516,2.953
	C105.421,37.934,105.257,39.059,105.257,40.203L105.257,40.203z M105.257,40.203"/>
<path fill="#DD1D00" d="M128.734,40c0-1.683,0.297-3.351,0.891-5c0.602-1.652,1.469-3.129,2.594-4.422
	c1.133-1.301,2.52-2.351,4.156-3.156c1.633-0.809,3.508-1.219,5.625-1.219c2.465,0,4.602,0.567,6.406,1.688
	c1.809,1.117,3.145,2.57,4,4.359l-4.141,2.844c-0.313-0.777-0.715-1.438-1.203-1.969c-0.492-0.527-1.035-0.953-1.625-1.265
	c-0.586-0.309-1.191-0.54-1.813-0.688c-0.625-0.145-1.223-0.219-1.781-0.219c-1.281,0-2.402,0.278-3.359,0.828
	c-0.961,0.543-1.762,1.254-2.406,2.125c-0.637,0.868-1.117,1.856-1.438,2.969c-0.324,1.106-0.484,2.199-0.484,3.281
	c0,1.231,0.188,2.414,0.563,3.547c0.371,1.125,0.906,2.121,1.594,2.984c0.684,0.855,1.508,1.544,2.469,2.063
	c0.965,0.512,2.023,0.766,3.172,0.766c0.59,0,1.203-0.07,1.828-0.219c0.621-0.152,1.227-0.397,1.813-0.733
	c0.59-0.341,1.133-0.782,1.625-1.313c0.488-0.539,0.891-1.188,1.203-1.937l4.406,2.531c-0.418,1.043-1.023,1.961-1.813,2.75
	c-0.793,0.793-1.695,1.465-2.703,2.017c-1.012,0.542-2.082,0.96-3.203,1.25c-1.117,0.276-2.223,0.421-3.313,0.421
	c-1.93,0-3.695-0.414-5.297-1.25c-1.594-0.832-2.973-1.914-4.125-3.25c-1.156-1.339-2.055-2.863-2.688-4.562
	C129.05,43.512,128.734,41.774,128.734,40L128.734,40z M128.734,40"/>
<rect x="155.894" y="48.438" width="4.297" height="5.608"/>
<path d="M174.246,54.438c-1.656,0-3.152-0.289-4.484-0.86c-1.324-0.57-2.449-1.343-3.375-2.313
	c-0.918-0.977-1.629-2.102-2.125-3.375c-0.492-1.277-0.734-2.617-0.734-4.016c0-1.433,0.242-2.789,0.734-4.062
	c0.496-1.27,1.207-2.395,2.125-3.375c0.926-0.977,2.051-1.75,3.375-2.313c1.332-0.57,2.828-0.859,4.484-0.859
	c1.664,0,3.156,0.289,4.469,0.859c1.309,0.563,2.426,1.336,3.344,2.313c0.926,0.98,1.633,2.105,2.125,3.375
	c0.496,1.273,0.75,2.629,0.75,4.062c0,1.399-0.254,2.738-0.75,4.016c-0.492,1.273-1.191,2.398-2.094,3.375
	c-0.906,0.97-2.027,1.742-3.359,2.313C177.406,54.149,175.91,54.438,174.246,54.438L174.246,54.438z M168.902,43.875
	c0,0.906,0.133,1.731,0.406,2.469c0.277,0.742,0.66,1.388,1.141,1.938c0.477,0.543,1.039,0.965,1.688,1.266
	c0.652,0.293,1.359,0.438,2.109,0.438c0.758,0,1.461-0.146,2.109-0.438c0.645-0.301,1.207-0.723,1.688-1.266
	c0.488-0.55,0.867-1.203,1.141-1.953c0.27-0.758,0.406-1.593,0.406-2.5c0-0.883-0.137-1.703-0.406-2.453
	c-0.273-0.758-0.652-1.41-1.141-1.953c-0.48-0.539-1.043-0.961-1.688-1.266c-0.648-0.3-1.352-0.453-2.109-0.453
	c-0.75,0-1.457,0.16-2.109,0.469c-0.648,0.313-1.211,0.746-1.688,1.297c-0.48,0.543-0.863,1.195-1.141,1.953
	C169.035,42.172,168.902,42.992,168.902,43.875L168.902,43.875z M168.902,43.875"/>
<path d="M200.597,38.141c-1.594,0.023-3.02,0.324-4.266,0.906c-1.242,0.586-2.137,1.465-2.688,2.641v12.359h-5.219V33.61h4.797
	v4.375c0.695-1.403,1.609-2.536,2.734-3.391c1.133-0.863,2.328-1.297,3.578-1.297c0.289,0,0.504,0.012,0.641,0.031
	c0.145,0.012,0.285,0.028,0.422,0.047V38.141z M200.597,38.141"/>
<path d="M211.539,54.156c-1.344,0-2.586-0.27-3.719-0.813c-1.137-0.539-2.105-1.285-2.906-2.233
	c-0.805-0.958-1.43-2.056-1.875-3.297c-0.438-1.247-0.656-2.579-0.656-3.985c0-1.476,0.234-2.851,0.703-4.125
	c0.465-1.277,1.113-2.398,1.938-3.359c0.832-0.965,1.828-1.723,2.984-2.266c1.164-0.539,2.445-0.812,3.844-0.812
	c1.613,0,3.02,0.363,4.219,1.078c1.195,0.711,2.172,1.664,2.922,2.859V33.61h4.563v19.468c0,1.496-0.285,2.848-0.844,4.047
	c-0.555,1.195-1.34,2.211-2.359,3.047c-1.012,0.832-2.207,1.469-3.578,1.906c-1.375,0.446-2.887,0.672-4.531,0.672
	c-2.262,0-4.152-0.379-5.672-1.125c-1.523-0.742-2.832-1.785-3.922-3.125l2.859-2.781c0.77,0.965,1.75,1.724,2.938,2.267
	c1.184,0.55,2.453,0.828,3.797,0.828c0.809,0,1.586-0.118,2.328-0.345c0.738-0.219,1.383-0.566,1.938-1.03
	c0.559-0.47,1.004-1.071,1.328-1.798c0.332-0.73,0.5-1.586,0.5-2.563V50.5c-0.68,1.168-1.633,2.07-2.859,2.703
	C214.257,53.84,212.941,54.156,211.539,54.156L211.539,54.156z M213.335,49.985c0.57,0,1.117-0.086,1.641-0.267
	c0.52-0.184,0.992-0.43,1.422-0.733c0.426-0.31,0.805-0.677,1.141-1.095c0.34-0.414,0.609-0.859,0.797-1.328v-4.875
	c-0.469-1.196-1.199-2.161-2.188-2.891c-0.992-0.727-2.035-1.094-3.125-1.094c-0.805,0-1.539,0.18-2.203,0.532
	c-0.656,0.355-1.223,0.824-1.688,1.406c-0.469,0.586-0.832,1.258-1.078,2.015c-0.25,0.75-0.375,1.528-0.375,2.329
	c0,0.835,0.141,1.617,0.422,2.343c0.289,0.73,0.691,1.371,1.203,1.922c0.508,0.543,1.109,0.973,1.797,1.281
	C211.785,49.836,212.531,49.985,213.335,49.985L213.335,49.985z M213.335,49.985"/>
<path d="M4.689,60.453c0,0.227-0.042,0.433-0.134,0.616c-0.1,0.188-0.222,0.341-0.386,0.472c-0.157,0.127-0.341,0.21-0.556,0.28
	c-0.219,0.073-0.438,0.108-0.685,0.108H0.207v-5.718h2.949c0.191,0,0.369,0.048,0.525,0.117c0.172,0.093,0.309,0.199,0.422,0.328
	c0.109,0.156,0.196,0.313,0.257,0.485c0.06,0.164,0.096,0.336,0.096,0.51c0,0.288-0.078,0.561-0.208,0.797
	C4.103,58.7,3.896,58.875,3.63,58.994c0.336,0.097,0.594,0.272,0.782,0.527C4.596,59.777,4.689,60.084,4.689,60.453L4.689,60.453z
	 M3.773,60.271c0-0.104-0.022-0.219-0.062-0.313c-0.037-0.121-0.094-0.204-0.164-0.288c-0.068-0.083-0.156-0.143-0.257-0.197
	c-0.095-0.059-0.2-0.087-0.298-0.087H1.118v1.76h1.811c0.121,0,0.235-0.022,0.34-0.077c0.102-0.05,0.188-0.116,0.262-0.18
	c0.07-0.082,0.133-0.156,0.165-0.273C3.747,60.518,3.773,60.386,3.773,60.271L3.773,60.271z M1.118,56.994v1.667h1.647
	c0.11,0,0.215-0.021,0.31-0.056c0.101-0.035,0.184-0.098,0.246-0.171c0.071-0.061,0.133-0.157,0.164-0.251
	c0.051-0.114,0.079-0.22,0.079-0.359c0-0.232-0.082-0.432-0.212-0.59c-0.145-0.174-0.321-0.24-0.536-0.24H1.118z M1.118,56.994"/>
<path d="M6.462,62.001c-0.208,0-0.4-0.039-0.572-0.086c-0.165-0.082-0.32-0.183-0.454-0.29c-0.114-0.109-0.211-0.266-0.293-0.422
	c-0.074-0.159-0.103-0.337-0.103-0.523c0-0.192,0.037-0.369,0.119-0.525c0.089-0.177,0.218-0.32,0.375-0.423
	c0.165-0.132,0.349-0.215,0.567-0.288c0.213-0.057,0.446-0.087,0.705-0.087c0.204,0,0.4,0.024,0.588,0.04
	c0.191,0.043,0.379,0.097,0.535,0.155v-0.305c0-0.294-0.09-0.544-0.262-0.72c-0.18-0.173-0.441-0.273-0.767-0.273
	c-0.226,0-0.457,0.051-0.68,0.14c-0.208,0.071-0.431,0.207-0.653,0.36l-0.278-0.556c0.536-0.374,1.107-0.563,1.694-0.563
	c0.575,0,1.017,0.167,1.338,0.453c0.329,0.301,0.489,0.717,0.489,1.268v1.518c0,0.095,0.019,0.177,0.051,0.227
	c0.039,0.042,0.101,0.051,0.196,0.056v0.773c-0.083,0.002-0.161,0.009-0.232,0.009c-0.074,0.008-0.148,0.016-0.194,0.016
	c-0.166-0.012-0.301-0.039-0.392-0.133c-0.083-0.089-0.148-0.188-0.166-0.313l-0.015-0.272c-0.196,0.257-0.441,0.449-0.716,0.57
	C7.071,61.932,6.778,62.001,6.462,62.001L6.462,62.001z M6.704,61.342c0.205,0,0.403-0.021,0.591-0.106
	c0.192-0.085,0.356-0.196,0.469-0.329c0.109-0.103,0.164-0.188,0.164-0.306v-0.556c-0.15-0.066-0.316-0.102-0.489-0.133
	c-0.164-0.027-0.336-0.047-0.488-0.047c-0.321,0-0.58,0.082-0.782,0.212c-0.196,0.125-0.294,0.301-0.294,0.523
	c0,0.22,0.07,0.396,0.227,0.546C6.254,61.281,6.454,61.342,6.704,61.342L6.704,61.342z M6.704,61.342"/>
<path d="M11.305,62.001c-0.177,0-0.353-0.02-0.525-0.047c-0.167-0.022-0.344-0.048-0.505-0.102c-0.164-0.059-0.336-0.12-0.489-0.181
	c-0.15-0.081-0.285-0.152-0.407-0.257l0.376-0.604c0.513,0.36,1.029,0.54,1.54,0.54c0.259,0,0.47-0.031,0.627-0.148
	c0.154-0.091,0.243-0.25,0.243-0.438c0-0.171-0.09-0.297-0.274-0.391c-0.176-0.066-0.454-0.168-0.834-0.25
	c-0.258-0.071-0.485-0.145-0.669-0.196c-0.188-0.07-0.347-0.15-0.461-0.228c-0.109-0.089-0.196-0.179-0.254-0.304
	c-0.05-0.11-0.081-0.243-0.081-0.402c0-0.212,0.044-0.405,0.128-0.579c0.09-0.172,0.208-0.31,0.345-0.411
	c0.152-0.134,0.324-0.213,0.521-0.273c0.204-0.06,0.419-0.095,0.653-0.095c0.305,0,0.602,0.056,0.88,0.155
	c0.286,0.084,0.544,0.23,0.767,0.393l-0.376,0.539c-0.403-0.308-0.825-0.469-1.287-0.469c-0.219,0-0.414,0.058-0.571,0.161
	c-0.156,0.093-0.233,0.237-0.233,0.44c0,0.094,0.007,0.153,0.037,0.213c0.04,0.061,0.091,0.119,0.165,0.148
	c0.082,0.054,0.175,0.101,0.284,0.14c0.115,0.03,0.271,0.051,0.447,0.102c0.286,0.074,0.53,0.13,0.737,0.213
	c0.214,0.072,0.382,0.141,0.52,0.241c0.14,0.083,0.246,0.208,0.308,0.328c0.059,0.128,0.098,0.281,0.098,0.454
	c0,0.208-0.051,0.387-0.129,0.541c-0.075,0.155-0.188,0.305-0.329,0.421c-0.156,0.103-0.336,0.204-0.551,0.273
	C11.787,61.966,11.559,62.001,11.305,62.001L11.305,62.001z M11.305,62.001"/>
<path d="M15.541,62.001c-0.337,0-0.634-0.066-0.912-0.164c-0.258-0.109-0.492-0.289-0.684-0.485c-0.188-0.2-0.333-0.419-0.442-0.688
	c-0.105-0.266-0.155-0.532-0.155-0.845c0-0.274,0.049-0.56,0.155-0.822c0.109-0.262,0.254-0.504,0.442-0.71
	c0.192-0.205,0.425-0.361,0.684-0.464c0.278-0.12,0.574-0.187,0.912-0.187c0.329,0,0.622,0.07,0.88,0.188
	c0.267,0.116,0.497,0.269,0.685,0.462c0.192,0.194,0.344,0.429,0.438,0.694c0.103,0.247,0.149,0.528,0.149,0.797
	c0,0.068-0.008,0.139-0.015,0.197c0,0.039-0.008,0.094-0.016,0.133H14.3c0.02,0.196,0.056,0.368,0.121,0.509
	c0.079,0.146,0.172,0.293,0.286,0.393c0.11,0.115,0.251,0.187,0.4,0.257c0.149,0.063,0.297,0.076,0.465,0.076
	c0.121,0,0.231-0.002,0.345-0.028c0.109-0.028,0.215-0.078,0.309-0.142c0.102-0.036,0.188-0.117,0.262-0.21
	c0.082-0.068,0.137-0.17,0.183-0.252l0.759,0.227c-0.156,0.31-0.395,0.579-0.731,0.782C16.37,61.915,15.983,62.001,15.541,62.001
	L15.541,62.001z M16.813,59.505c-0.024-0.172-0.062-0.333-0.142-0.5c-0.066-0.152-0.156-0.274-0.265-0.391
	c-0.113-0.091-0.244-0.18-0.407-0.221c-0.145-0.07-0.305-0.107-0.458-0.107c-0.165,0-0.332,0.037-0.473,0.107
	c-0.156,0.041-0.283,0.13-0.392,0.221c-0.113,0.116-0.207,0.238-0.277,0.391c-0.073,0.167-0.109,0.328-0.129,0.5H16.813z
	 M16.813,59.505"/>
<path d="M18.234,56.063h0.891v4.617c0,0.155,0.039,0.273,0.114,0.375c0.078,0.092,0.198,0.117,0.354,0.117
	c0.048,0,0.11-0.008,0.196-0.021c0.078-0.008,0.157-0.034,0.231-0.064l0.128,0.705c-0.136,0.062-0.285,0.115-0.457,0.141
	c-0.188,0.03-0.344,0.054-0.481,0.054c-0.301,0-0.552-0.07-0.724-0.253c-0.165-0.165-0.252-0.393-0.252-0.709V56.063z
	 M18.234,56.063"/>
<path d="M22.379,61.93v-5.718h2.493c0.254,0,0.493,0.048,0.704,0.164c0.215,0.094,0.399,0.25,0.567,0.422
	c0.152,0.176,0.277,0.381,0.36,0.604c0.089,0.218,0.134,0.423,0.134,0.657c0,0.195-0.025,0.383-0.084,0.556
	c-0.05,0.191-0.125,0.358-0.215,0.501c-0.094,0.144-0.215,0.271-0.355,0.39c-0.134,0.103-0.297,0.191-0.458,0.243l1.354,2.182
	h-1.023l-1.258-1.986h-1.307v1.986H22.379z M23.291,59.145h1.565c0.122,0,0.238-0.029,0.345-0.093
	c0.109-0.056,0.203-0.125,0.277-0.242c0.082-0.091,0.133-0.204,0.176-0.329c0.039-0.122,0.066-0.266,0.066-0.422
	c0-0.13-0.034-0.26-0.082-0.406c-0.055-0.123-0.117-0.225-0.196-0.329c-0.081-0.092-0.183-0.181-0.292-0.243
	c-0.106-0.039-0.219-0.071-0.34-0.071h-1.518V59.145z M23.291,59.145"/>
<path d="M29.375,62.001c-0.329,0-0.634-0.066-0.901-0.164c-0.27-0.109-0.493-0.289-0.685-0.485c-0.188-0.2-0.344-0.419-0.453-0.688
	c-0.106-0.266-0.149-0.532-0.149-0.845c0-0.274,0.043-0.56,0.149-0.822c0.109-0.262,0.265-0.504,0.453-0.71
	c0.192-0.205,0.416-0.361,0.685-0.464c0.267-0.12,0.572-0.187,0.901-0.187c0.328,0,0.621,0.07,0.879,0.188
	c0.278,0.116,0.498,0.269,0.685,0.462c0.192,0.194,0.343,0.429,0.438,0.694c0.102,0.247,0.149,0.528,0.149,0.797
	c0,0.068-0.003,0.139-0.004,0.197c0,0.039-0.008,0.094-0.015,0.133h-3.372c0.019,0.196,0.065,0.368,0.129,0.509
	c0.07,0.146,0.164,0.293,0.277,0.393c0.121,0.115,0.25,0.187,0.407,0.257c0.141,0.063,0.301,0.076,0.458,0.076
	c0.122,0,0.242-0.002,0.355-0.028c0.099-0.028,0.205-0.078,0.298-0.142c0.101-0.036,0.191-0.117,0.273-0.21
	c0.07-0.068,0.125-0.17,0.18-0.252l0.751,0.227c-0.145,0.31-0.396,0.579-0.721,0.782C30.203,61.915,29.816,62.001,29.375,62.001
	L29.375,62.001z M30.645,59.505c-0.012-0.172-0.063-0.333-0.133-0.5c-0.067-0.152-0.163-0.274-0.264-0.391
	c-0.113-0.091-0.253-0.18-0.406-0.221c-0.156-0.07-0.305-0.107-0.468-0.107c-0.165,0-0.322,0.037-0.475,0.107
	c-0.145,0.041-0.281,0.13-0.391,0.221c-0.113,0.116-0.208,0.238-0.278,0.391c-0.062,0.167-0.109,0.328-0.128,0.5H30.645z
	 M30.645,59.505"/>
<path d="M33.747,61.954c-0.289,0-0.559-0.039-0.782-0.163c-0.238-0.111-0.441-0.268-0.603-0.463c-0.164-0.204-0.3-0.438-0.391-0.695
	c-0.094-0.264-0.144-0.525-0.144-0.814c0-0.293,0.05-0.591,0.144-0.838c0.09-0.277,0.227-0.516,0.391-0.711
	c0.173-0.192,0.38-0.345,0.619-0.447c0.234-0.12,0.497-0.187,0.788-0.187c0.346,0,0.647,0.09,0.895,0.243
	c0.254,0.155,0.469,0.368,0.634,0.634v-0.799h0.782v4.077c0,0.315-0.063,0.574-0.165,0.813c-0.113,0.246-0.281,0.445-0.483,0.604
	c-0.198,0.159-0.439,0.288-0.706,0.375c-0.272,0.089-0.567,0.117-0.88,0.117c-0.474,0-0.869-0.067-1.174-0.219
	c-0.301-0.18-0.563-0.381-0.767-0.666l0.49-0.468c0.16,0.223,0.375,0.39,0.622,0.515c0.254,0.109,0.528,0.18,0.83,0.18
	c0.172,0,0.337-0.027,0.504-0.077c0.16-0.054,0.301-0.114,0.427-0.228c0.132-0.094,0.229-0.223,0.293-0.39
	c0.071-0.158,0.114-0.342,0.114-0.556V61.15c-0.145,0.26-0.354,0.463-0.619,0.594C34.307,61.898,34.033,61.954,33.747,61.954
	L33.747,61.954z M34.025,61.25c0.133,0,0.267-0.023,0.391-0.078c0.122-0.029,0.232-0.095,0.329-0.18
	c0.109-0.067,0.204-0.169,0.29-0.251c0.07-0.113,0.117-0.211,0.149-0.335V59.31c-0.106-0.277-0.271-0.5-0.505-0.665
	c-0.225-0.16-0.461-0.234-0.716-0.234c-0.194,0-0.372,0.027-0.524,0.117c-0.156,0.078-0.282,0.199-0.392,0.328
	c-0.105,0.141-0.184,0.298-0.243,0.47c-0.051,0.164-0.082,0.337-0.082,0.509c0,0.195,0.035,0.38,0.098,0.54
	c0.069,0.185,0.16,0.332,0.265,0.453c0.119,0.124,0.263,0.23,0.42,0.319C33.668,61.211,33.837,61.25,34.025,61.25L34.025,61.25z
	 M34.025,61.25"/>
<path d="M36.936,61.93v-4.216h0.879v4.216H36.936z M36.936,57.024v-0.962h0.879v0.962H36.936z M36.936,57.024"/>
<path d="M40.374,62.001c-0.176,0-0.354-0.02-0.535-0.047c-0.165-0.022-0.333-0.048-0.5-0.102c-0.169-0.059-0.33-0.12-0.491-0.181
	c-0.149-0.081-0.289-0.152-0.399-0.257l0.375-0.604c0.512,0.36,1.018,0.54,1.534,0.54c0.254,0,0.465-0.031,0.633-0.148
	c0.153-0.091,0.232-0.25,0.232-0.438c0-0.171-0.091-0.297-0.262-0.391c-0.177-0.066-0.455-0.168-0.841-0.25
	c-0.262-0.071-0.489-0.145-0.673-0.196c-0.188-0.07-0.337-0.15-0.458-0.228c-0.113-0.089-0.2-0.179-0.247-0.304
	c-0.063-0.11-0.09-0.243-0.09-0.402c0-0.212,0.042-0.405,0.125-0.579c0.091-0.172,0.212-0.31,0.356-0.411
	c0.141-0.134,0.313-0.213,0.509-0.273c0.203-0.06,0.427-0.095,0.664-0.095c0.3,0,0.595,0.056,0.881,0.155
	c0.285,0.084,0.54,0.23,0.766,0.393l-0.375,0.539c-0.403-0.308-0.837-0.469-1.287-0.469c-0.227,0-0.419,0.058-0.571,0.161
	c-0.168,0.093-0.243,0.237-0.243,0.44c0,0.094,0.016,0.153,0.047,0.213c0.028,0.061,0.09,0.119,0.165,0.148
	c0.07,0.054,0.164,0.101,0.277,0.14c0.122,0.03,0.267,0.051,0.445,0.102c0.294,0.074,0.538,0.13,0.744,0.213
	c0.216,0.072,0.384,0.141,0.521,0.241c0.129,0.083,0.235,0.208,0.298,0.328c0.07,0.128,0.099,0.281,0.099,0.454
	c0,0.208-0.042,0.387-0.12,0.541c-0.076,0.155-0.188,0.305-0.34,0.421c-0.145,0.103-0.326,0.204-0.54,0.273
	C40.854,61.966,40.617,62.001,40.374,62.001L40.374,62.001z M40.374,62.001"/>
<path d="M45.018,61.703c-0.114,0.041-0.282,0.114-0.475,0.195c-0.194,0.048-0.415,0.087-0.637,0.087
	c-0.146,0-0.271-0.023-0.392-0.054c-0.125-0.025-0.235-0.087-0.324-0.173c-0.095-0.067-0.169-0.184-0.227-0.297
	c-0.044-0.12-0.067-0.273-0.067-0.438V58.41h-0.571v-0.696h0.571v-1.385h0.88v1.385h0.927v0.696h-0.927v2.347
	c0,0.146,0.047,0.243,0.129,0.313c0.078,0.073,0.188,0.087,0.317,0.087c0.117,0,0.239-0.007,0.352-0.04
	c0.109-0.051,0.195-0.093,0.246-0.124L45.018,61.703z M45.018,61.703"/>
<path d="M47.415,62.001c-0.34,0-0.645-0.066-0.911-0.164c-0.258-0.109-0.493-0.289-0.685-0.485c-0.188-0.2-0.333-0.419-0.442-0.688
	c-0.105-0.266-0.16-0.532-0.16-0.845c0-0.274,0.055-0.56,0.16-0.822c0.11-0.262,0.255-0.504,0.442-0.71
	c0.192-0.205,0.426-0.361,0.685-0.464c0.267-0.12,0.571-0.187,0.911-0.187c0.326,0,0.618,0.07,0.88,0.188
	c0.267,0.116,0.497,0.269,0.684,0.462c0.192,0.194,0.333,0.429,0.427,0.694c0.102,0.247,0.161,0.528,0.161,0.797
	c0,0.068-0.008,0.139-0.016,0.197c0,0.039-0.008,0.094-0.016,0.133h-3.36c0.007,0.196,0.055,0.368,0.117,0.509
	c0.08,0.146,0.175,0.293,0.278,0.393c0.122,0.115,0.262,0.187,0.407,0.257c0.152,0.063,0.301,0.076,0.467,0.076
	c0.111,0,0.232-0.002,0.346-0.028c0.109-0.028,0.216-0.078,0.31-0.142c0.101-0.036,0.188-0.117,0.262-0.21
	c0.07-0.068,0.136-0.17,0.18-0.252l0.762,0.227c-0.155,0.31-0.395,0.579-0.731,0.782C48.233,61.915,47.846,62.001,47.415,62.001
	L47.415,62.001z M48.686,59.505c-0.022-0.172-0.067-0.333-0.144-0.5c-0.063-0.152-0.152-0.274-0.262-0.391
	c-0.113-0.091-0.247-0.18-0.407-0.221c-0.145-0.07-0.305-0.107-0.458-0.107c-0.166,0-0.332,0.037-0.473,0.107
	c-0.156,0.041-0.281,0.13-0.391,0.221c-0.113,0.116-0.208,0.238-0.279,0.391c-0.073,0.167-0.108,0.328-0.127,0.5H48.686z
	 M48.686,59.505"/>
<path d="M52.466,58.465c-0.341,0.023-0.646,0.116-0.912,0.258c-0.258,0.133-0.45,0.35-0.571,0.634v2.573h-0.88v-4.216h0.829v0.931
	c0.141-0.273,0.333-0.513,0.572-0.688c0.233-0.185,0.477-0.29,0.735-0.29c0.058,0,0.098,0,0.128,0c0.039,0,0.066,0,0.099,0V58.465z
	 M52.466,58.465"/>
<path d="M56.644,62.001c-0.322,0-0.619-0.067-0.89-0.18c-0.264-0.11-0.492-0.28-0.687-0.479c-0.191-0.191-0.329-0.409-0.43-0.679
	c-0.106-0.277-0.156-0.543-0.156-0.845c0-0.274,0.05-0.56,0.156-0.822c0.101-0.262,0.238-0.5,0.43-0.695
	c0.195-0.204,0.423-0.36,0.687-0.477c0.271-0.118,0.568-0.188,0.89-0.188c0.336,0,0.638,0.07,0.896,0.188
	c0.265,0.116,0.496,0.272,0.684,0.477c0.184,0.195,0.332,0.434,0.438,0.695c0.101,0.263,0.148,0.548,0.148,0.822
	c0,0.302-0.047,0.567-0.148,0.845c-0.107,0.27-0.254,0.487-0.438,0.679c-0.188,0.199-0.419,0.369-0.684,0.479
	C57.282,61.934,56.98,62.001,56.644,62.001L56.644,62.001z M55.403,59.818c0,0.207,0.031,0.399,0.083,0.571
	c0.069,0.169,0.16,0.332,0.268,0.453c0.115,0.114,0.256,0.223,0.401,0.304c0.152,0.064,0.312,0.104,0.489,0.104
	c0.18,0,0.343-0.039,0.488-0.104c0.165-0.081,0.294-0.193,0.408-0.319c0.109-0.121,0.199-0.269,0.261-0.453
	c0.071-0.16,0.104-0.349,0.104-0.556c0-0.203-0.033-0.392-0.104-0.556c-0.062-0.172-0.152-0.321-0.261-0.457
	c-0.113-0.134-0.243-0.221-0.408-0.293c-0.145-0.082-0.309-0.103-0.488-0.103c-0.165,0-0.326,0.021-0.489,0.103
	c-0.145,0.085-0.282,0.175-0.392,0.297c-0.111,0.136-0.202,0.281-0.262,0.453C55.438,59.439,55.403,59.628,55.403,59.818
	L55.403,59.818z M55.403,59.818"/>
<path d="M59.652,61.93v-3.042h-0.567v-0.675h0.567v-0.577c0-0.513,0.11-0.924,0.36-1.214c0.24-0.309,0.563-0.453,0.978-0.453
	c0.161,0,0.329,0.027,0.504,0.078c0.161,0.032,0.322,0.098,0.475,0.18l-0.196,0.644c-0.074-0.029-0.168-0.072-0.278-0.103
	c-0.113-0.04-0.223-0.063-0.324-0.063c-0.207,0-0.364,0.09-0.473,0.243c-0.113,0.156-0.165,0.383-0.165,0.68v0.586h1.076v0.675
	h-1.076v3.042H59.652z M59.652,61.93"/>
<path d="M68.118,57.009h-1.905v4.921h-0.885v-4.921h-1.92v-0.797h4.71V57.009z M68.118,57.009"/>
<path d="M72.381,61.93h-0.896v-2.361c0-0.381-0.071-0.674-0.203-0.861c-0.142-0.184-0.341-0.289-0.586-0.289
	c-0.123,0-0.252,0.027-0.384,0.078c-0.115,0.055-0.236,0.109-0.346,0.211c-0.105,0.094-0.204,0.188-0.293,0.298
	c-0.083,0.136-0.15,0.266-0.196,0.406v2.519h-0.879v-5.867h0.879v2.497c0.161-0.298,0.383-0.525,0.653-0.681
	c0.28-0.153,0.588-0.243,0.928-0.243c0.242,0,0.457,0.056,0.622,0.155c0.184,0.084,0.316,0.224,0.423,0.376
	c0.101,0.145,0.168,0.321,0.211,0.524c0.049,0.207,0.066,0.431,0.066,0.665V61.93z M72.381,61.93"/>
<path d="M75.139,62.001c-0.338,0-0.634-0.066-0.912-0.164c-0.257-0.109-0.491-0.289-0.684-0.485c-0.188-0.2-0.333-0.419-0.442-0.688
	c-0.105-0.266-0.151-0.532-0.151-0.845c0-0.274,0.046-0.56,0.151-0.822c0.109-0.262,0.254-0.504,0.442-0.71
	c0.193-0.205,0.427-0.361,0.684-0.464c0.278-0.12,0.574-0.187,0.912-0.187c0.328,0,0.622,0.07,0.88,0.188
	c0.266,0.116,0.497,0.269,0.685,0.462c0.191,0.194,0.343,0.429,0.437,0.694c0.103,0.247,0.149,0.528,0.149,0.797
	c0,0.068-0.007,0.139-0.015,0.197c0,0.039-0.008,0.094-0.015,0.133h-3.361c0.02,0.196,0.056,0.368,0.122,0.509
	c0.078,0.146,0.173,0.293,0.286,0.393c0.109,0.115,0.25,0.187,0.403,0.257c0.144,0.063,0.294,0.076,0.46,0.076
	c0.122,0,0.231-0.002,0.345-0.028c0.109-0.028,0.215-0.078,0.31-0.142c0.101-0.036,0.188-0.117,0.262-0.21
	c0.081-0.068,0.136-0.17,0.188-0.252l0.754,0.227c-0.155,0.31-0.395,0.579-0.731,0.782C75.968,61.915,75.58,62.001,75.139,62.001
	L75.139,62.001z M76.411,59.505c-0.023-0.172-0.063-0.333-0.137-0.5c-0.07-0.152-0.161-0.274-0.27-0.391
	c-0.114-0.091-0.243-0.18-0.407-0.221c-0.145-0.07-0.299-0.107-0.458-0.107c-0.164,0-0.332,0.037-0.474,0.107
	c-0.149,0.041-0.282,0.13-0.392,0.221c-0.113,0.116-0.207,0.238-0.277,0.391c-0.067,0.167-0.109,0.328-0.129,0.5H76.411z
	 M76.411,59.505"/>
<path d="M79.407,62.001c-0.176,0-0.352-0.02-0.523-0.047c-0.174-0.022-0.345-0.048-0.505-0.102c-0.164-0.059-0.336-0.12-0.489-0.181
	c-0.155-0.081-0.285-0.152-0.406-0.257l0.375-0.604c0.512,0.36,1.029,0.54,1.542,0.54c0.257,0,0.468-0.031,0.625-0.148
	c0.159-0.091,0.243-0.25,0.243-0.438c0-0.171-0.091-0.297-0.274-0.391c-0.177-0.066-0.454-0.168-0.833-0.25
	c-0.259-0.071-0.485-0.145-0.669-0.196c-0.188-0.07-0.348-0.15-0.459-0.228c-0.111-0.089-0.198-0.179-0.256-0.304
	c-0.051-0.11-0.082-0.243-0.082-0.402c0-0.212,0.038-0.405,0.128-0.579c0.09-0.172,0.209-0.31,0.345-0.411
	c0.151-0.134,0.324-0.213,0.52-0.273c0.204-0.06,0.416-0.095,0.653-0.095c0.306,0,0.603,0.056,0.881,0.155
	c0.285,0.084,0.547,0.23,0.766,0.393l-0.375,0.539c-0.403-0.308-0.825-0.469-1.287-0.469c-0.224,0-0.418,0.058-0.571,0.161
	c-0.157,0.093-0.24,0.237-0.24,0.44c0,0.094,0.013,0.153,0.043,0.213c0.039,0.061,0.09,0.119,0.165,0.148
	c0.082,0.054,0.175,0.101,0.287,0.14c0.112,0.03,0.269,0.051,0.444,0.102c0.287,0.074,0.535,0.13,0.736,0.213
	c0.216,0.072,0.386,0.141,0.521,0.241c0.14,0.083,0.246,0.208,0.308,0.328c0.06,0.128,0.099,0.281,0.099,0.454
	c0,0.208-0.051,0.387-0.129,0.541c-0.074,0.155-0.188,0.305-0.329,0.421c-0.156,0.103-0.336,0.204-0.551,0.273
	C79.889,61.966,79.661,62.001,79.407,62.001L79.407,62.001z M79.407,62.001"/>
<path d="M82.841,62.001c-0.207,0-0.398-0.039-0.57-0.086c-0.165-0.082-0.321-0.183-0.442-0.29c-0.125-0.109-0.223-0.266-0.293-0.422
	c-0.085-0.159-0.113-0.337-0.113-0.523c0-0.192,0.035-0.369,0.126-0.525c0.091-0.177,0.209-0.32,0.378-0.423
	c0.152-0.132,0.336-0.215,0.556-0.288c0.214-0.057,0.446-0.087,0.715-0.087c0.201,0,0.396,0.024,0.587,0.04
	c0.192,0.043,0.368,0.097,0.524,0.155v-0.305c0-0.294-0.09-0.544-0.262-0.72c-0.176-0.173-0.442-0.273-0.766-0.273
	c-0.227,0-0.458,0.051-0.669,0.14c-0.22,0.071-0.443,0.207-0.666,0.36l-0.277-0.556c0.543-0.374,1.107-0.563,1.693-0.563
	c0.576,0,1.018,0.167,1.338,0.453c0.33,0.301,0.489,0.717,0.489,1.268v1.518c0,0.095,0.02,0.177,0.063,0.227
	c0.028,0.042,0.101,0.051,0.196,0.056v0.773c-0.092,0.002-0.172,0.009-0.243,0.009c-0.075,0.008-0.139,0.016-0.196,0.016
	c-0.164-0.012-0.301-0.039-0.391-0.133c-0.083-0.089-0.139-0.188-0.165-0.313l-0.015-0.272c-0.196,0.257-0.442,0.449-0.715,0.57
	C83.452,61.932,83.159,62.001,82.841,62.001L82.841,62.001z M83.084,61.342c0.215,0,0.415-0.021,0.603-0.106
	c0.192-0.085,0.344-0.196,0.457-0.329c0.111-0.103,0.165-0.188,0.165-0.306v-0.556c-0.145-0.066-0.317-0.102-0.489-0.133
	c-0.164-0.027-0.325-0.047-0.489-0.047c-0.319,0-0.579,0.082-0.782,0.212c-0.196,0.125-0.293,0.301-0.293,0.523
	c0,0.22,0.077,0.396,0.227,0.546C82.634,61.281,82.833,61.342,83.084,61.342L83.084,61.342z M83.084,61.342"/>
<path d="M87.415,62.001c-0.439,0-0.775-0.137-0.987-0.437c-0.227-0.275-0.34-0.71-0.34-1.277v-2.573h0.881v2.394
	c0,0.763,0.261,1.143,0.797,1.143c0.254,0,0.505-0.086,0.721-0.241c0.222-0.154,0.394-0.381,0.519-0.658v-2.637h0.896v3.16
	c0,0.095,0.019,0.177,0.052,0.227c0.037,0.042,0.101,0.051,0.196,0.056v0.773c-0.095,0.002-0.178,0.009-0.248,0.009
	c-0.063,0.008-0.133,0.016-0.18,0.016c-0.34-0.022-0.528-0.18-0.556-0.446l-0.032-0.438c-0.187,0.298-0.434,0.536-0.731,0.689
	C88.104,61.932,87.778,62.001,87.415,62.001L87.415,62.001z M87.415,62.001"/>
<path d="M93.228,58.465c-0.344,0.023-0.646,0.116-0.912,0.258c-0.258,0.133-0.45,0.35-0.572,0.634v2.573h-0.88v-4.216h0.829v0.931
	c0.141-0.273,0.333-0.513,0.571-0.688c0.229-0.185,0.479-0.29,0.737-0.29c0.058,0,0.097,0,0.128,0c0.038,0,0.066,0,0.098,0V58.465z
	 M93.228,58.465"/>
<path d="M93.768,61.93v-4.216h0.88v4.216H93.768z M93.768,57.024v-0.962h0.88v0.962H93.768z M93.768,57.024"/>
<path d="M95.427,62.063c0.038,0,0.087-0.02,0.145-0.046c0.059-0.032,0.098-0.086,0.098-0.181V60.89h0.73v1.096
	c0,0.138-0.038,0.259-0.104,0.337c-0.055,0.094-0.129,0.179-0.22,0.219c-0.094,0.059-0.199,0.102-0.31,0.125
	c-0.113,0.028-0.229,0.046-0.339,0.046V62.063z M95.427,62.063"/>
<path d="M101.748,61.954c-0.403,0-0.77-0.063-1.103-0.224c-0.33-0.179-0.614-0.389-0.851-0.661
	c-0.235-0.277-0.416-0.574-0.549-0.915c-0.126-0.371-0.196-0.728-0.196-1.086c0-0.381,0.078-0.74,0.212-1.081
	c0.139-0.355,0.33-0.673,0.571-0.944c0.246-0.265,0.53-0.479,0.859-0.637c0.325-0.152,0.689-0.241,1.081-0.241
	c0.398,0,0.765,0.095,1.097,0.257c0.33,0.165,0.618,0.396,0.849,0.658c0.241,0.282,0.42,0.583,0.55,0.943
	c0.128,0.351,0.189,0.695,0.189,1.045c0,0.382-0.069,0.746-0.203,1.1c-0.143,0.357-0.327,0.655-0.568,0.933
	c-0.239,0.247-0.534,0.46-0.859,0.63C102.5,61.891,102.134,61.954,101.748,61.954L101.748,61.954z M99.975,59.068
	c0,0.27,0.037,0.52,0.13,0.766c0.075,0.258,0.199,0.488,0.344,0.68c0.153,0.196,0.341,0.353,0.556,0.463
	c0.224,0.124,0.479,0.174,0.759,0.174c0.278,0,0.533-0.054,0.75-0.188c0.223-0.111,0.41-0.268,0.566-0.463
	c0.146-0.204,0.257-0.431,0.351-0.681c0.072-0.233,0.117-0.493,0.117-0.75c0-0.265-0.049-0.533-0.133-0.782
	c-0.088-0.256-0.208-0.462-0.366-0.654c-0.154-0.198-0.34-0.355-0.556-0.457c-0.219-0.132-0.458-0.181-0.729-0.181
	c-0.28,0-0.536,0.049-0.759,0.181c-0.218,0.112-0.41,0.27-0.571,0.461c-0.145,0.188-0.269,0.41-0.344,0.665
	C100.008,58.56,99.975,58.807,99.975,59.068L99.975,59.068z M99.975,59.068"/>
<path d="M108.809,61.93h-0.885v-2.361c0-0.389-0.074-0.685-0.195-0.861c-0.135-0.184-0.314-0.289-0.542-0.289
	c-0.146,0-0.268,0.027-0.392,0.078c-0.143,0.055-0.263,0.109-0.385,0.211c-0.113,0.094-0.21,0.188-0.308,0.298
	c-0.082,0.136-0.146,0.266-0.195,0.406v2.519h-0.873v-4.216h0.798v0.846c0.161-0.286,0.391-0.51,0.692-0.666
	c0.296-0.159,0.651-0.258,1.024-0.258c0.237,0,0.441,0.056,0.617,0.155c0.162,0.071,0.288,0.209,0.393,0.36
	c0.091,0.156,0.168,0.337,0.196,0.54c0.032,0.207,0.055,0.431,0.055,0.665V61.93z M108.809,61.93"/>
<path d="M111.985,61.703c-0.113,0.041-0.292,0.114-0.484,0.195c-0.195,0.048-0.403,0.087-0.626,0.087
	c-0.156,0-0.282-0.023-0.392-0.054c-0.137-0.025-0.234-0.087-0.336-0.173c-0.083-0.067-0.168-0.184-0.222-0.297
	c-0.037-0.12-0.061-0.273-0.061-0.438V58.41h-0.571v-0.696h0.571v-1.385h0.869v1.385h0.938v0.696h-0.938v2.347
	c0,0.146,0.047,0.243,0.141,0.313c0.066,0.073,0.188,0.087,0.313,0.087c0.114,0,0.242-0.007,0.345-0.04
	c0.121-0.051,0.195-0.093,0.258-0.124L111.985,61.703z M111.985,61.703"/>
<path d="M114.278,62.001c-0.321,0-0.63-0.067-0.885-0.18c-0.27-0.11-0.504-0.28-0.695-0.479c-0.188-0.191-0.325-0.409-0.429-0.679
	c-0.104-0.277-0.158-0.543-0.158-0.845c0-0.274,0.055-0.56,0.158-0.822c0.104-0.262,0.241-0.5,0.429-0.695
	c0.191-0.204,0.426-0.36,0.695-0.477c0.255-0.118,0.563-0.188,0.885-0.188c0.337,0,0.638,0.07,0.907,0.188
	c0.255,0.116,0.485,0.272,0.673,0.477c0.185,0.195,0.321,0.434,0.438,0.695c0.09,0.263,0.148,0.548,0.148,0.822
	c0,0.302-0.059,0.567-0.148,0.845c-0.117,0.27-0.254,0.487-0.438,0.679c-0.188,0.199-0.418,0.369-0.673,0.479
	C114.916,61.934,114.615,62.001,114.278,62.001L114.278,62.001z M113.049,59.818c0,0.207,0.009,0.399,0.07,0.571
	c0.07,0.169,0.149,0.332,0.273,0.453c0.11,0.114,0.253,0.223,0.407,0.304c0.141,0.064,0.302,0.104,0.478,0.104
	c0.172,0,0.337-0.039,0.5-0.104c0.153-0.081,0.282-0.193,0.407-0.319c0.098-0.121,0.199-0.269,0.251-0.453
	c0.07-0.16,0.108-0.349,0.108-0.556c0-0.203-0.038-0.392-0.108-0.556c-0.052-0.172-0.153-0.321-0.251-0.457
	c-0.125-0.134-0.254-0.221-0.407-0.293c-0.163-0.082-0.328-0.103-0.5-0.103c-0.164,0-0.325,0.021-0.478,0.103
	c-0.154,0.085-0.293,0.175-0.392,0.297c-0.124,0.136-0.203,0.281-0.273,0.453C113.062,59.439,113.049,59.628,113.049,59.818
	L113.049,59.818z M113.049,59.818"/>
<path d="M117.047,56.063h0.897v4.617c0,0.155,0.026,0.273,0.111,0.375c0.076,0.092,0.2,0.117,0.345,0.117
	c0.059,0,0.122-0.008,0.195-0.021c0.09-0.008,0.157-0.034,0.242-0.064l0.118,0.705c-0.125,0.062-0.274,0.115-0.446,0.141
	c-0.177,0.03-0.355,0.054-0.485,0.054c-0.297,0-0.548-0.07-0.72-0.253c-0.164-0.165-0.258-0.393-0.258-0.709V56.063z
	 M117.047,56.063"/>
<path d="M121.249,62.001c-0.344,0-0.63-0.067-0.907-0.18c-0.256-0.11-0.481-0.28-0.673-0.479c-0.188-0.191-0.348-0.409-0.438-0.679
	c-0.112-0.277-0.148-0.543-0.148-0.845c0-0.274,0.036-0.56,0.148-0.822c0.091-0.262,0.25-0.5,0.438-0.695
	c0.191-0.204,0.417-0.36,0.673-0.477c0.277-0.118,0.563-0.188,0.907-0.188c0.325,0,0.615,0.07,0.884,0.188
	c0.278,0.116,0.502,0.272,0.689,0.477c0.19,0.195,0.328,0.434,0.422,0.695c0.113,0.263,0.17,0.548,0.17,0.822
	c0,0.302-0.057,0.567-0.17,0.845c-0.094,0.27-0.231,0.487-0.422,0.679c-0.188,0.199-0.411,0.369-0.689,0.479
	C121.864,61.934,121.574,62.001,121.249,62.001L121.249,62.001z M119.997,59.818c0,0.207,0.031,0.399,0.089,0.571
	c0.053,0.169,0.153,0.332,0.256,0.453c0.133,0.114,0.262,0.223,0.407,0.304c0.141,0.064,0.321,0.104,0.5,0.104
	c0.172,0,0.333-0.039,0.478-0.104c0.152-0.081,0.305-0.193,0.406-0.319c0.112-0.121,0.2-0.269,0.274-0.453
	c0.047-0.16,0.086-0.349,0.086-0.556c0-0.203-0.039-0.392-0.086-0.556c-0.074-0.172-0.162-0.321-0.274-0.457
	c-0.102-0.134-0.254-0.221-0.406-0.293c-0.145-0.082-0.306-0.103-0.478-0.103c-0.177,0-0.348,0.021-0.5,0.103
	c-0.146,0.085-0.272,0.175-0.392,0.297c-0.103,0.136-0.203,0.281-0.27,0.453C120.032,59.439,119.997,59.628,119.997,59.818
	L119.997,59.818z M119.997,59.818"/>
<path d="M125.685,61.954c-0.301,0-0.548-0.039-0.783-0.163c-0.238-0.111-0.441-0.268-0.602-0.463
	c-0.165-0.204-0.307-0.438-0.392-0.695c-0.1-0.264-0.133-0.525-0.133-0.814c0-0.293,0.033-0.591,0.133-0.838
	c0.085-0.277,0.227-0.516,0.392-0.711c0.172-0.192,0.379-0.345,0.617-0.447c0.247-0.12,0.498-0.187,0.799-0.187
	c0.336,0,0.627,0.09,0.884,0.243c0.254,0.155,0.47,0.368,0.634,0.634v-0.799h0.782v4.077c0,0.315-0.066,0.574-0.164,0.813
	c-0.125,0.246-0.281,0.445-0.485,0.604c-0.207,0.159-0.434,0.288-0.704,0.375c-0.281,0.089-0.563,0.117-0.892,0.117
	c-0.462,0-0.857-0.067-1.173-0.219c-0.29-0.18-0.552-0.381-0.768-0.666l0.501-0.468c0.16,0.223,0.375,0.39,0.633,0.515
	c0.231,0.109,0.517,0.18,0.807,0.18c0.18,0,0.359-0.027,0.516-0.077c0.161-0.054,0.302-0.114,0.438-0.228
	c0.121-0.094,0.209-0.223,0.282-0.39c0.081-0.158,0.113-0.342,0.113-0.556V61.15c-0.156,0.26-0.363,0.463-0.606,0.594
	C126.245,61.898,125.959,61.954,125.685,61.954L125.685,61.954z M125.953,61.25c0.15,0,0.276-0.023,0.391-0.078
	c0.132-0.029,0.233-0.095,0.351-0.18c0.099-0.067,0.203-0.169,0.267-0.251c0.082-0.113,0.14-0.211,0.16-0.335V59.31
	c-0.105-0.277-0.271-0.5-0.505-0.665c-0.227-0.16-0.463-0.234-0.704-0.234c-0.195,0-0.372,0.027-0.54,0.117
	c-0.152,0.078-0.277,0.199-0.391,0.328c-0.102,0.141-0.191,0.298-0.228,0.47c-0.063,0.164-0.094,0.337-0.094,0.509
	c0,0.195,0.035,0.38,0.109,0.54c0.048,0.185,0.148,0.332,0.251,0.453c0.133,0.124,0.266,0.23,0.422,0.319
	C125.595,61.211,125.763,61.25,125.953,61.25L125.953,61.25z M125.953,61.25"/>
<path d="M128.884,61.93v-4.216h0.869v4.216H128.884z M128.884,57.024v-0.962h0.869v0.962H128.884z M128.884,57.024"/>
<path d="M132.652,62.001c-0.329,0-0.636-0.066-0.899-0.164c-0.271-0.109-0.505-0.289-0.696-0.485
	c-0.188-0.2-0.333-0.419-0.431-0.688c-0.117-0.266-0.172-0.532-0.172-0.845c0-0.274,0.055-0.56,0.172-0.822
	c0.098-0.262,0.243-0.504,0.431-0.71c0.191-0.205,0.426-0.361,0.696-0.464c0.264-0.12,0.57-0.187,0.899-0.187
	c0.332,0,0.622,0.07,0.892,0.188c0.255,0.116,0.485,0.269,0.674,0.462c0.191,0.194,0.333,0.429,0.438,0.694
	c0.098,0.247,0.148,0.528,0.148,0.797c0,0.068-0.008,0.139-0.016,0.197c0,0.039-0.008,0.094-0.016,0.133h-3.353
	c0.002,0.196,0.048,0.368,0.121,0.509c0.08,0.146,0.165,0.293,0.271,0.393c0.128,0.115,0.257,0.187,0.402,0.257
	c0.163,0.063,0.313,0.076,0.469,0.076c0.114,0,0.242-0.002,0.345-0.028c0.12-0.028,0.215-0.078,0.32-0.142
	c0.09-0.036,0.188-0.117,0.251-0.21c0.081-0.068,0.147-0.17,0.18-0.252l0.768,0.227c-0.161,0.31-0.391,0.579-0.736,0.782
	C133.481,61.915,133.094,62.001,132.652,62.001L132.652,62.001z M133.935,59.505c-0.023-0.172-0.074-0.333-0.156-0.5
	c-0.052-0.152-0.152-0.274-0.251-0.391c-0.124-0.091-0.254-0.18-0.406-0.221c-0.146-0.07-0.316-0.107-0.47-0.107
	c-0.164,0-0.321,0.037-0.462,0.107c-0.168,0.041-0.293,0.13-0.392,0.221c-0.124,0.116-0.207,0.238-0.289,0.391
	c-0.073,0.167-0.098,0.328-0.117,0.5H133.935z M133.935,59.505"/>
<path d="M136.92,62.001c-0.177,0-0.353-0.02-0.524-0.047c-0.165-0.022-0.333-0.048-0.494-0.102c-0.182-0.059-0.347-0.12-0.5-0.181
	c-0.145-0.081-0.274-0.152-0.406-0.257l0.375-0.604c0.523,0.36,1.029,0.54,1.534,0.54c0.266,0,0.477-0.031,0.633-0.148
	c0.153-0.091,0.243-0.25,0.243-0.438c0-0.171-0.102-0.297-0.273-0.391c-0.177-0.066-0.443-0.168-0.822-0.25
	c-0.27-0.071-0.497-0.145-0.681-0.196c-0.188-0.07-0.337-0.15-0.469-0.228c-0.103-0.089-0.2-0.179-0.235-0.304
	c-0.063-0.11-0.094-0.243-0.094-0.402c0-0.212,0.047-0.405,0.123-0.579c0.096-0.172,0.206-0.31,0.361-0.411
	c0.142-0.134,0.313-0.213,0.509-0.273c0.204-0.06,0.427-0.095,0.665-0.095c0.294,0,0.603,0.056,0.869,0.155
	c0.297,0.084,0.54,0.23,0.767,0.393l-0.376,0.539c-0.402-0.308-0.836-0.469-1.275-0.469c-0.227,0-0.419,0.058-0.571,0.161
	c-0.167,0.093-0.242,0.237-0.242,0.44c0,0.094,0.016,0.153,0.047,0.213c0.028,0.061,0.079,0.119,0.164,0.148
	c0.068,0.054,0.165,0.101,0.267,0.14c0.133,0.03,0.277,0.051,0.454,0.102c0.297,0.074,0.528,0.13,0.735,0.213
	c0.215,0.072,0.383,0.141,0.531,0.241c0.13,0.083,0.225,0.208,0.298,0.328c0.07,0.128,0.108,0.281,0.108,0.454
	c0,0.208-0.05,0.387-0.14,0.541c-0.063,0.155-0.188,0.305-0.329,0.421c-0.145,0.103-0.325,0.204-0.54,0.273
	C137.413,61.966,137.174,62.001,136.92,62.001L136.92,62.001z M136.92,62.001"/>
<path d="M145.033,61.93l-0.514-0.563c-0.245,0.208-0.515,0.365-0.781,0.485c-0.285,0.09-0.592,0.148-0.888,0.148
	c-0.281,0-0.532-0.051-0.767-0.118c-0.227-0.101-0.426-0.211-0.587-0.344c-0.164-0.163-0.306-0.34-0.391-0.547
	c-0.102-0.204-0.134-0.423-0.134-0.627c0-0.193,0.029-0.359,0.071-0.515c0.07-0.154,0.147-0.291,0.242-0.439
	c0.106-0.121,0.215-0.235,0.329-0.359c0.144-0.099,0.273-0.219,0.406-0.313c-0.113-0.134-0.23-0.259-0.298-0.361
	c-0.093-0.131-0.152-0.23-0.211-0.336c-0.063-0.09-0.105-0.199-0.117-0.281c-0.009-0.102-0.016-0.188-0.016-0.305
	c0-0.192,0.016-0.368,0.102-0.525c0.082-0.16,0.173-0.297,0.305-0.422c0.145-0.11,0.306-0.215,0.493-0.267
	c0.185-0.07,0.384-0.109,0.603-0.109c0.191,0,0.38,0.036,0.556,0.094c0.172,0.033,0.321,0.114,0.469,0.227
	c0.122,0.095,0.225,0.216,0.298,0.393c0.09,0.145,0.118,0.316,0.118,0.508c0,0.31-0.095,0.599-0.298,0.845
	c-0.207,0.218-0.473,0.435-0.767,0.627l1.275,1.354c0.09-0.193,0.163-0.4,0.195-0.598c0.059-0.214,0.094-0.445,0.094-0.694h0.735
	c-0.012,0.352-0.065,0.699-0.133,1.01c-0.094,0.297-0.207,0.59-0.36,0.844l1.143,1.188H145.033z M142.944,61.313
	c0.2,0,0.397-0.039,0.587-0.125c0.184-0.06,0.352-0.18,0.509-0.314l-1.487-1.579c-0.219,0.155-0.395,0.32-0.547,0.492
	c-0.125,0.188-0.195,0.379-0.195,0.582c0,0.145,0.031,0.271,0.094,0.391c0.068,0.114,0.141,0.206,0.258,0.295
	c0.09,0.085,0.203,0.129,0.344,0.181C142.635,61.289,142.776,61.313,142.944,61.313L142.944,61.313z M142.173,57.434
	c0,0.053,0.003,0.119,0.013,0.178c0.02,0.032,0.05,0.095,0.093,0.165c0.039,0.048,0.086,0.121,0.165,0.211
	c0.081,0.071,0.156,0.184,0.273,0.282c0.24-0.153,0.431-0.298,0.587-0.445c0.141-0.137,0.227-0.291,0.227-0.455
	c0-0.16-0.07-0.313-0.184-0.407c-0.133-0.11-0.282-0.164-0.466-0.164c-0.207,0-0.38,0.054-0.519,0.196
	C142.224,57.107,142.173,57.252,142.173,57.434L142.173,57.434z M142.173,57.434"/>
<path d="M148.238,59.021c0-0.337,0.065-0.674,0.191-1.003c0.12-0.358,0.297-0.655,0.535-0.938c0.234-0.263,0.509-0.485,0.838-0.642
	c0.359-0.179,0.746-0.259,1.16-0.259c0.521,0,0.967,0.11,1.327,0.345c0.368,0.227,0.63,0.519,0.827,0.907l-0.71,0.462
	c-0.072-0.159-0.184-0.302-0.282-0.438c-0.124-0.11-0.238-0.214-0.379-0.267c-0.129-0.082-0.258-0.14-0.395-0.15
	c-0.148-0.026-0.278-0.045-0.399-0.045c-0.301,0-0.566,0.049-0.772,0.181c-0.222,0.112-0.409,0.27-0.572,0.461
	c-0.146,0.196-0.255,0.427-0.345,0.68c-0.063,0.251-0.103,0.49-0.103,0.736c0,0.29,0.047,0.544,0.118,0.799
	c0.101,0.257,0.219,0.487,0.375,0.68c0.161,0.195,0.353,0.348,0.571,0.446c0.224,0.124,0.474,0.174,0.736,0.174
	c0.136,0,0.277-0.004,0.422-0.034c0.164-0.039,0.297-0.101,0.423-0.167c0.14-0.086,0.258-0.189,0.359-0.302
	c0.121-0.11,0.203-0.273,0.289-0.438l0.752,0.423c-0.089,0.218-0.231,0.411-0.392,0.57c-0.156,0.164-0.337,0.324-0.54,0.422
	c-0.207,0.107-0.431,0.2-0.665,0.258c-0.238,0.049-0.451,0.071-0.673,0.071c-0.403,0-0.763-0.071-1.103-0.235
	c-0.321-0.178-0.614-0.391-0.838-0.68c-0.238-0.279-0.419-0.59-0.563-0.932C148.307,59.759,148.238,59.387,148.238,59.021
	L148.238,59.021z M148.238,59.021"/>
<path d="M153.718,56.063h0.906v4.617c0,0.155,0.039,0.273,0.103,0.375c0.09,0.092,0.199,0.117,0.348,0.117
	c0.055,0,0.129-0.008,0.192-0.021c0.09-0.008,0.179-0.034,0.242-0.064l0.141,0.705c-0.148,0.062-0.297,0.115-0.47,0.141
	c-0.176,0.03-0.332,0.054-0.484,0.054c-0.298,0-0.548-0.07-0.72-0.253c-0.165-0.165-0.258-0.393-0.258-0.709V56.063z
	 M153.718,56.063"/>
<path d="M157.179,62.001c-0.207,0-0.399-0.039-0.571-0.086c-0.175-0.082-0.332-0.183-0.453-0.29
	c-0.114-0.109-0.223-0.266-0.299-0.422c-0.069-0.159-0.108-0.337-0.108-0.523c0-0.192,0.047-0.369,0.118-0.525
	c0.101-0.177,0.219-0.32,0.381-0.423c0.17-0.132,0.354-0.215,0.572-0.288c0.209-0.057,0.436-0.087,0.705-0.087
	c0.203,0,0.398,0.024,0.587,0.04c0.191,0.043,0.367,0.097,0.524,0.155v-0.305c0-0.294-0.079-0.544-0.251-0.72
	c-0.185-0.173-0.442-0.273-0.779-0.273c-0.215,0-0.445,0.051-0.668,0.14c-0.219,0.071-0.441,0.207-0.665,0.36l-0.267-0.556
	c0.532-0.374,1.096-0.563,1.683-0.563c0.575,0,1.028,0.167,1.338,0.453c0.339,0.301,0.501,0.717,0.501,1.268v1.518
	c0,0.095,0.019,0.177,0.039,0.227c0.039,0.042,0.113,0.051,0.198,0.056v0.773c-0.073,0.002-0.163,0.009-0.223,0.009
	c-0.085,0.008-0.159,0.016-0.195,0.016c-0.177-0.012-0.313-0.039-0.391-0.133c-0.094-0.089-0.16-0.188-0.177-0.313l-0.004-0.272
	c-0.195,0.257-0.441,0.449-0.727,0.57C157.79,61.932,157.485,62.001,157.179,62.001L157.179,62.001z M157.417,61.342
	c0.197,0,0.396-0.021,0.584-0.106c0.2-0.085,0.367-0.196,0.469-0.329c0.119-0.103,0.165-0.188,0.165-0.306v-0.556
	c-0.146-0.066-0.306-0.102-0.478-0.133c-0.165-0.027-0.347-0.047-0.501-0.047c-0.31,0-0.579,0.082-0.782,0.212
	c-0.195,0.125-0.282,0.301-0.282,0.523c0,0.22,0.06,0.396,0.227,0.546C156.972,61.281,157.171,61.342,157.417,61.342L157.417,61.342
	z M157.417,61.342"/>
<path d="M162.022,62.001c-0.176,0-0.352-0.02-0.524-0.047c-0.171-0.022-0.354-0.048-0.516-0.102
	c-0.164-0.059-0.325-0.12-0.478-0.181c-0.161-0.081-0.297-0.152-0.407-0.257l0.376-0.604c0.501,0.36,1.028,0.54,1.534,0.54
	c0.266,0,0.477-0.031,0.633-0.148c0.153-0.091,0.242-0.25,0.242-0.438c0-0.171-0.101-0.297-0.273-0.391
	c-0.176-0.066-0.465-0.168-0.845-0.25c-0.251-0.071-0.474-0.145-0.657-0.196c-0.188-0.07-0.359-0.15-0.47-0.228
	c-0.103-0.089-0.199-0.179-0.258-0.304c-0.04-0.11-0.07-0.243-0.07-0.402c0-0.212,0.032-0.405,0.117-0.579
	c0.102-0.172,0.211-0.31,0.345-0.411c0.161-0.134,0.336-0.213,0.531-0.273c0.203-0.06,0.415-0.095,0.643-0.095
	c0.316,0,0.603,0.056,0.891,0.155c0.274,0.084,0.54,0.23,0.768,0.393l-0.376,0.539c-0.403-0.308-0.837-0.469-1.298-0.469
	c-0.212,0-0.414,0.058-0.571,0.161c-0.157,0.093-0.235,0.237-0.235,0.44c0,0.094,0.01,0.153,0.04,0.213
	c0.038,0.061,0.101,0.119,0.165,0.148c0.081,0.054,0.184,0.101,0.288,0.14c0.109,0.03,0.277,0.051,0.453,0.102
	c0.274,0.074,0.528,0.13,0.736,0.213c0.215,0.072,0.383,0.141,0.509,0.241c0.151,0.083,0.246,0.208,0.32,0.328
	c0.047,0.128,0.086,0.281,0.086,0.454c0,0.208-0.048,0.387-0.117,0.541c-0.086,0.155-0.188,0.305-0.33,0.421
	c-0.167,0.103-0.347,0.204-0.562,0.273C162.5,61.966,162.277,62.001,162.022,62.001L162.022,62.001z M162.022,62.001"/>
<path d="M165.903,62.001c-0.176,0-0.352-0.02-0.524-0.047c-0.164-0.022-0.348-0.048-0.516-0.102
	c-0.164-0.059-0.325-0.12-0.478-0.181c-0.146-0.081-0.297-0.152-0.407-0.257l0.376-0.604c0.501,0.36,1.028,0.54,1.533,0.54
	c0.266,0,0.478-0.031,0.634-0.148c0.152-0.091,0.242-0.25,0.242-0.438c0-0.171-0.101-0.297-0.273-0.391
	c-0.176-0.066-0.465-0.168-0.845-0.25c-0.247-0.071-0.474-0.145-0.657-0.196c-0.188-0.07-0.348-0.15-0.47-0.228
	c-0.102-0.089-0.199-0.179-0.258-0.304c-0.04-0.11-0.07-0.243-0.07-0.402c0-0.212,0.046-0.405,0.117-0.579
	c0.102-0.172,0.211-0.31,0.345-0.411c0.163-0.134,0.336-0.213,0.531-0.273c0.203-0.06,0.426-0.095,0.643-0.095
	c0.315,0,0.602,0.056,0.891,0.155c0.275,0.084,0.54,0.23,0.768,0.393l-0.376,0.539c-0.403-0.308-0.837-0.469-1.294-0.469
	c-0.209,0-0.4,0.058-0.575,0.161c-0.157,0.093-0.22,0.237-0.22,0.44c0,0.094,0.012,0.153,0.023,0.213
	c0.039,0.061,0.102,0.119,0.188,0.148c0.06,0.054,0.164,0.101,0.267,0.14c0.128,0.03,0.277,0.051,0.453,0.102
	c0.274,0.074,0.528,0.13,0.735,0.213c0.216,0.072,0.384,0.141,0.51,0.241c0.151,0.083,0.246,0.208,0.319,0.328
	c0.063,0.128,0.087,0.281,0.087,0.454c0,0.208-0.029,0.387-0.117,0.541c-0.086,0.155-0.188,0.305-0.329,0.421
	c-0.167,0.103-0.348,0.204-0.56,0.273C166.396,61.966,166.157,62.001,165.903,62.001L165.903,62.001z M165.903,62.001"/>
<path d="M168.2,61.93v-4.216h0.892v4.216H168.2z M168.2,57.024v-0.962h0.892v0.962H168.2z M168.2,57.024"/>
<path d="M170.32,58.888h-0.556v-0.675h0.556v-0.577c0-0.202,0.035-0.404,0.109-0.611c0.074-0.203,0.172-0.379,0.298-0.547
	c0.151-0.152,0.324-0.27,0.531-0.376c0.203-0.077,0.423-0.133,0.704-0.133c0.305,0,0.56,0.056,0.798,0.133
	c0.247,0.106,0.458,0.204,0.634,0.337l-0.36,0.642c-0.136-0.09-0.281-0.184-0.453-0.234c-0.176-0.082-0.368-0.125-0.571-0.125
	c-0.134,0-0.27,0.034-0.36,0.093c-0.104,0.038-0.172,0.106-0.242,0.195c-0.073,0.071-0.122,0.185-0.148,0.282
	c-0.031,0.117-0.047,0.216-0.047,0.336v0.586h2.214v3.717h-0.892v-3.042h-1.322v3.042h-0.892V58.888z M170.32,58.888"/>
<path d="M174.021,59.803c0-0.286,0.051-0.575,0.167-0.822c0.091-0.266,0.228-0.5,0.426-0.694c0.188-0.205,0.42-0.361,0.701-0.464
	c0.269-0.12,0.571-0.187,0.9-0.187c0.43,0,0.802,0.105,1.132,0.289c0.308,0.188,0.546,0.446,0.69,0.751l-0.86,0.29
	c-0.094-0.173-0.229-0.325-0.42-0.406c-0.167-0.114-0.358-0.149-0.573-0.149c-0.176,0-0.337,0.021-0.478,0.103
	c-0.146,0.072-0.297,0.159-0.407,0.293c-0.108,0.124-0.203,0.27-0.273,0.441c-0.04,0.164-0.071,0.353-0.071,0.556
	c0,0.207,0.035,0.399,0.087,0.571c0.07,0.185,0.153,0.332,0.273,0.453c0.11,0.126,0.262,0.238,0.407,0.319
	c0.152,0.064,0.313,0.104,0.478,0.104c0.113,0,0.211-0.015,0.336-0.047c0.098-0.039,0.211-0.063,0.282-0.117
	c0.101-0.059,0.168-0.129,0.242-0.18c0.069-0.083,0.102-0.149,0.133-0.243l0.892,0.273c-0.155,0.31-0.38,0.579-0.727,0.782
	c-0.321,0.196-0.701,0.282-1.143,0.282c-0.329,0-0.632-0.067-0.9-0.18c-0.27-0.11-0.504-0.28-0.695-0.479
	c-0.188-0.192-0.333-0.425-0.432-0.694C174.072,60.382,174.021,60.115,174.021,59.803L174.021,59.803z M174.021,59.803"/>
<path d="M179.763,62.001c-0.207,0-0.399-0.039-0.571-0.086c-0.164-0.082-0.31-0.183-0.453-0.29
	c-0.114-0.109-0.215-0.266-0.282-0.422c-0.086-0.159-0.125-0.337-0.125-0.523c0-0.192,0.047-0.369,0.141-0.525
	c0.078-0.177,0.219-0.32,0.375-0.423c0.153-0.132,0.337-0.215,0.556-0.288c0.215-0.057,0.458-0.087,0.705-0.087
	c0.203,0,0.398,0.024,0.587,0.04c0.191,0.043,0.367,0.097,0.547,0.155v-0.305c0-0.294-0.102-0.544-0.274-0.72
	c-0.176-0.173-0.441-0.273-0.767-0.273c-0.227,0-0.457,0.051-0.68,0.14c-0.216,0.071-0.422,0.207-0.643,0.36l-0.289-0.556
	c0.532-0.374,1.106-0.563,1.686-0.563c0.59,0,1.025,0.167,1.357,0.453c0.317,0.301,0.478,0.717,0.478,1.268v1.518
	c0,0.095,0.02,0.177,0.063,0.227c0.039,0.042,0.091,0.051,0.195,0.056v0.773c-0.093,0.002-0.16,0.009-0.242,0.009
	c-0.084,0.008-0.137,0.016-0.195,0.016c-0.164-0.012-0.29-0.039-0.392-0.133c-0.092-0.089-0.137-0.188-0.164-0.313l-0.016-0.272
	c-0.195,0.257-0.441,0.449-0.704,0.57C180.374,61.932,180.085,62.001,179.763,62.001L179.763,62.001z M180.005,61.342
	c0.215,0,0.414-0.021,0.603-0.106c0.191-0.085,0.345-0.196,0.448-0.329c0.119-0.103,0.186-0.188,0.186-0.306v-0.556
	c-0.168-0.066-0.328-0.102-0.501-0.133c-0.164-0.027-0.324-0.047-0.478-0.047c-0.332,0-0.579,0.082-0.782,0.212
	c-0.195,0.125-0.305,0.301-0.305,0.523c0,0.22,0.082,0.396,0.227,0.546C179.556,61.281,179.755,61.342,180.005,61.342
	L180.005,61.342z M180.005,61.342"/>
<path d="M185.345,61.703c-0.137,0.041-0.293,0.114-0.485,0.195c-0.195,0.048-0.414,0.087-0.648,0.087
	c-0.134,0-0.259-0.023-0.392-0.054c-0.113-0.025-0.219-0.087-0.313-0.173c-0.104-0.067-0.168-0.184-0.227-0.297
	c-0.055-0.12-0.067-0.273-0.067-0.438V58.41h-0.582v-0.696h0.582v-1.385h0.881v1.385h0.916v0.696h-0.916v2.347
	c0,0.146,0.047,0.243,0.118,0.313c0.089,0.073,0.188,0.087,0.336,0.087c0.109,0,0.229-0.007,0.344-0.04
	c0.099-0.051,0.196-0.093,0.258-0.124L185.345,61.703z M185.345,61.703"/>
<path d="M185.795,61.93v-4.216h0.892v4.216H185.795z M185.795,57.024v-0.962h0.892v0.962H185.795z M185.795,57.024"/>
<path d="M189.554,62.001c-0.321,0-0.629-0.067-0.884-0.18c-0.27-0.11-0.505-0.28-0.696-0.479c-0.188-0.191-0.325-0.409-0.438-0.679
	c-0.095-0.277-0.149-0.543-0.149-0.845c0-0.274,0.055-0.56,0.149-0.822c0.112-0.262,0.25-0.5,0.438-0.695
	c0.191-0.204,0.427-0.36,0.696-0.477c0.255-0.118,0.563-0.188,0.884-0.188c0.325,0,0.638,0.07,0.885,0.188
	c0.277,0.116,0.508,0.272,0.696,0.477c0.184,0.195,0.32,0.434,0.438,0.695c0.091,0.263,0.148,0.548,0.148,0.822
	c0,0.302-0.058,0.567-0.148,0.845c-0.117,0.27-0.254,0.487-0.438,0.679c-0.188,0.199-0.419,0.369-0.696,0.479
	C190.192,61.934,189.879,62.001,189.554,62.001L189.554,62.001z M188.303,59.818c0,0.207,0.031,0.399,0.094,0.571
	c0.069,0.169,0.148,0.332,0.273,0.453c0.109,0.114,0.239,0.223,0.401,0.304c0.146,0.064,0.307,0.104,0.482,0.104
	c0.173,0,0.333-0.039,0.49-0.104c0.163-0.081,0.292-0.193,0.395-0.319c0.121-0.121,0.2-0.269,0.273-0.453
	c0.07-0.16,0.109-0.349,0.109-0.556c0-0.203-0.039-0.392-0.109-0.556c-0.073-0.172-0.152-0.321-0.273-0.457
	c-0.103-0.134-0.231-0.221-0.395-0.293c-0.157-0.082-0.317-0.103-0.49-0.103c-0.164,0-0.325,0.021-0.482,0.103
	c-0.162,0.085-0.288,0.175-0.391,0.297c-0.12,0.136-0.201,0.281-0.27,0.453C188.338,59.439,188.303,59.628,188.303,59.818
	L188.303,59.818z M188.303,59.818"/>
<path d="M196.11,61.93h-0.898v-2.361c0-0.389-0.074-0.685-0.196-0.861c-0.113-0.184-0.294-0.289-0.54-0.289
	c-0.134,0-0.27,0.027-0.391,0.078c-0.134,0.055-0.266,0.109-0.376,0.211c-0.124,0.094-0.219,0.188-0.32,0.298
	c-0.07,0.136-0.145,0.266-0.195,0.406v2.519h-0.869v-4.216h0.798v0.846c0.161-0.286,0.399-0.51,0.689-0.666
	c0.316-0.159,0.652-0.258,1.024-0.258c0.254,0,0.461,0.056,0.618,0.155c0.16,0.071,0.286,0.209,0.391,0.36
	c0.091,0.156,0.169,0.337,0.212,0.54c0.039,0.207,0.054,0.431,0.054,0.665V61.93z M196.11,61.93"/>
<path d="M198.509,62.001c-0.177,0-0.353-0.02-0.524-0.047c-0.165-0.022-0.333-0.048-0.515-0.102
	c-0.166-0.059-0.326-0.12-0.479-0.181c-0.145-0.081-0.296-0.152-0.406-0.257l0.375-0.604c0.511,0.36,1.029,0.54,1.534,0.54
	c0.266,0,0.477-0.031,0.633-0.148c0.153-0.091,0.243-0.25,0.243-0.438c0-0.171-0.102-0.297-0.273-0.391
	c-0.177-0.066-0.454-0.168-0.843-0.25c-0.249-0.071-0.477-0.145-0.66-0.196c-0.188-0.07-0.337-0.15-0.469-0.228
	c-0.103-0.089-0.2-0.179-0.237-0.304c-0.061-0.11-0.092-0.243-0.092-0.402c0-0.212,0.047-0.405,0.117-0.579
	c0.102-0.172,0.212-0.31,0.365-0.411c0.144-0.134,0.315-0.213,0.511-0.273c0.204-0.06,0.427-0.095,0.662-0.095
	c0.297,0,0.584,0.056,0.872,0.155c0.296,0.084,0.54,0.23,0.767,0.393l-0.376,0.539c-0.402-0.308-0.837-0.469-1.275-0.469
	c-0.227,0-0.419,0.058-0.579,0.161c-0.171,0.093-0.234,0.237-0.234,0.44c0,0.094,0.016,0.153,0.045,0.213
	c0.019,0.061,0.081,0.119,0.166,0.148c0.06,0.054,0.165,0.101,0.267,0.14c0.133,0.03,0.277,0.051,0.454,0.102
	c0.29,0.074,0.528,0.13,0.735,0.213c0.215,0.072,0.383,0.141,0.522,0.241c0.139,0.083,0.232,0.208,0.307,0.328
	c0.07,0.128,0.086,0.281,0.086,0.454c0,0.208-0.027,0.387-0.117,0.541c-0.071,0.155-0.188,0.305-0.329,0.421
	c-0.145,0.103-0.337,0.204-0.54,0.273C199.001,61.966,198.763,62.001,198.509,62.001L198.509,62.001z M198.509,62.001"/>
<g>
	<path d="M168.586,67.949c7.214,9.187,18.42,15.098,30.979,15.098c21.711,0,39.375-17.663,39.375-39.374
		c0-21.712-17.664-39.376-39.375-39.376c-16.499,0-30.661,10.201-36.51,24.627l-4.6,0C164.518,12.079,180.658,0,199.566,0
		c24.081,0,43.672,19.591,43.672,43.673c0,24.08-19.591,43.671-43.672,43.671c-15.104,0-28.44-7.707-36.286-19.394"/>
</g>
</svg>
